<?xml version="1.0" encoding="utf-8"?>
<!-- Generator: Adobe Illustrator 25.2.0, SVG Export Plug-In . SVG Version: 6.00 Build 0)  -->
<svg version="1.1" id="Layer_1" xmlns="http://www.w3.org/2000/svg" xmlns:xlink="http://www.w3.org/1999/xlink" x="0px" y="0px"
	 viewBox="0 0 888 100" style="enable-background:new 0 0 888 100;" xml:space="preserve">
<style type="text/css">
	.st0{fill:url(#SVGID_1_);}
</style>
<linearGradient id="SVGID_1_" gradientUnits="userSpaceOnUse" x1="0" y1="38.1244" x2="888" y2="38.1244">
	<stop  offset="0" style="stop-color:#F85858"/>
	<stop  offset="0.2" style="stop-color:#F076AB"/>
	<stop  offset="0.4" style="stop-color:#A07DDE"/>
	<stop  offset="0.6" style="stop-color:#008CE3"/>
	<stop  offset="0.8" style="stop-color:#2AC68E"/>
	<stop  offset="1" style="stop-color:#3DDDD8"/>
</linearGradient>
<path class="st0" d="M886.5,66.2H731.3c-1.3-0.4-2.2-1-2.2-1c-0.7-0.4-1.8-0.9-3.3-1.4c0.8-1.1,1.8-2.6,2.9-4.4
	c2.1-3.6,3.3-6.7,3.8-8.3c0.5-1.4,1.2-3.6,1.7-6.6c0.2-1.3,0.6-4.2,0.4-7.8c0-0.9-0.1-1.7-0.2-2.2c1,1.2,1.6,2.2,1.9,2.8
	c0.6,1.1,0.9,1.6,1,1.8c0.2,0.4,0.3,0.8,0.4,0.8c0.2,0,0.1-1.2,0.3-1.2c0.2,0,0.8,1.6,1.1,2.8c0.3,0.9,0.4,1.6,0.5,1.6
	c0.2,0,0.3-1.3,0.4-1.3c0.2,0,0.4,2.1,0.4,2.6c0.1,1.1,0.1,1.8,0.2,1.8c0.1,0,0.3-1.1,0.5-1.1c0.2,0,0.2,0.8,0.5,2
	c0.2,0.8,0.6,1.8,0.7,1.8c0.2,0-0.1-2.1,0.2-2.2c0.1,0,0.3,0.5,1,1.9c0.9,1.8,1,2.1,1.1,2c0.1,0-0.1-1.1-0.3-1.9
	c-0.4-1.5-0.8-2.4-0.7-2.4c0.2-0.1,1.4,1.9,1.6,1.8c0.2-0.1-1.5-3.6-1.2-3.8c0.1-0.1,0.8,1,0.9,0.9c0.1,0,0-0.3-0.6-2.1
	c-0.6-1.7-1-2.4-0.9-2.5c0.2-0.1,1,1.1,1.1,1c0.1-0.1-0.5-1.4-1.5-2.8c-0.9-1.3-1.8-2.1-1.7-2.2c0.1-0.1,1.2,0.8,1.4,0.6
	c0.1-0.2-0.9-1.5-2-2.6c-1.1-1.1-2.2-1.9-2.8-2.3c1.3,0,2.2,0.3,2.7,0.5c0.5,0.3,1.1,0.7,1.2,0.5c0.2-0.2-0.3-0.9-0.1-1
	c0.2-0.1,1,0.7,1.6,1.4c0.6,0.7,1,1.2,1.1,1.2c0.1-0.1-0.4-1-0.2-1.1c0.3-0.2,2.9,3.3,3.1,3.1c0.1-0.1-0.5-1-0.3-1.1
	c0.1-0.1,0.6,0.5,1.5,1.3c0.1,0.1,1.6,1.4,1.7,1.3c0.1-0.1-1.4-1.8-1.2-2c0.1-0.1,0.5,0.2,1.8,1c1.8,1.1,1.9,1.1,1.9,1.1
	c0.1-0.1-1-1.1-1.4-1.4c-1-0.9-1.6-1.3-1.5-1.4c0.1-0.2,2.1,0.6,2.2,0.5c0.1-0.2-3.3-2-3.1-2.3c0.1-0.2,1.2,0.4,1.3,0.2
	c0.2-0.3-3.5-2.5-3.4-2.7c0.1-0.1,1.2,0.5,1.3,0.3c0.1-0.1-0.9-1.1-2.2-1.7c-1.7-0.9-3.1-1-3.1-1.2c0-0.2,1.8-0.1,1.8-0.3
	c0-0.1-0.8-0.3-1.5-0.4c-1.1-0.1-1.9,0-1.9-0.2c0-0.2,1-0.5,0.9-0.6c0-0.1-1.3,0.1-1.3,0c0-0.1,1.1-0.6,2.4-0.9
	c0.9-0.2,1.7-0.2,1.7-0.3c0-0.2-1-0.3-1-0.4c0-0.1,0.7-0.2,1.5-0.1c1.1,0.1,1.8,0.4,1.8,0.2c0.1-0.2-0.6-0.6-0.5-0.7
	c0.1-0.1,1,0.3,1.8,0.8c0.8,0.5,1.3,0.8,1.3,0.8c0.1-0.1-1.7-1.7-1.5-1.9c0.1-0.1,0.8,0.3,2,1c1.4,0.8,1.9,1.2,1.9,1.1
	c0.1-0.1-0.6-1-1.5-1.7c-0.9-0.7-1.8-1-1.7-1.1c0-0.1,0.8,0.1,1.3,0.2c0.8,0.2,1.1,0.3,1.1,0.3c0-0.1-0.7-0.7-1.7-1.2
	c-1.4-0.6-2.6-0.6-2.6-0.8c0-0.2,1.2-0.2,1.2-0.3c0-0.1-1.6-0.4-3.3-0.1c-1.3,0.2-2.2,0.7-2.3,0.6c-0.1-0.2,1.4-1,1.3-1.1
	c-0.1-0.1-1,0.3-3,1.1c-0.7,0.3-1.1,0.5-1.5,0.8c-0.7,0.6-1.1,1.2-1.1,1.1c-0.1-0.1,1-1.7,0.7-1.9c-0.2-0.1-1,0.7-2.4,1.9
	c-1,0.9-1.8,1.6-2.4,2c-0.1-0.3-0.2-0.7-0.5-1.2c-0.3-0.6-0.4-0.8-0.4-0.9c-0.3-0.5-0.8-0.8-1-1c-2.1-1.6-3.1-2.3-4-2.7
	c-1.4-0.6-2.8-0.8-2.9-0.7c-0.1,0.2,1.5,0.8,1.4,1c-0.1,0.2-1.8-0.5-4.2-0.5c-1.3,0-2.6,0.2-2.6,0.4c0,0.2,1.6,0.3,1.6,0.5
	c0,0.1-1.1,0-2.6,0.3c-0.9,0.1-1.7,0.4-2.3,0.6c-0.5-0.5-1.3-1.2-2.1-1.8c-2.4-1.6-4.7-2.1-4.6-2.3c0.1-0.2,2.4,0.3,2.5,0
	c0.1-0.2-0.9-0.7-1.9-1c-1.6-0.6-3.3-0.8-5.6-0.7c-3.1,0.1-5.2,0.7-5.3,0.4c-0.1-0.3,2-1,1.9-1.3c-0.1-0.3-1.7-0.1-1.7-0.2
	c0-0.1,1.3-0.4,3-0.7c1.9-0.2,3-0.2,3.1-0.5c0.1-0.4-1.4-0.9-1.4-1.1c0.1-0.2,1.7-0.1,3.3,0.3c1.4,0.4,2.2,0.8,2.3,0.6
	c0.1-0.2-1.1-1.1-1-1.3c0.1-0.1,1,0.3,2.5,1c1.6,0.7,2.9,1.3,3,1.1c0.1-0.2-1.4-1.3-1.3-1.4c0.1-0.1,0.7,0.2,2.5,1.2
	c2,1.1,2.9,1.6,3,1.5c0.1-0.2-2.3-2.1-2.1-2.4c0.1-0.1,1,0.2,2.8,1c2.5,1,3.1,1.2,3.1,1.1c0.1-0.2-1.2-1.1-2.4-1.9
	c-1.8-1.1-3-1.5-3-1.6c0.1-0.3,3.5,0.6,3.6,0.3c0.1-0.2-1.6-0.9-2.6-1.3c-1.7-0.7-3-0.9-3-1c0-0.2,2.1,0.2,2.2-0.1
	c0.1-0.2-1.8-1-4-1.4c-1.8-0.3-3.3-0.2-3.3-0.4c0-0.2,2.1-0.3,2.1-0.6c0-0.2-1.6-0.5-3.3-0.5c-3.1,0-5.3,0.9-5.4,0.6
	c-0.1-0.3,1.9-1.1,1.8-1.3c-0.1-0.2-1.9,0.1-3.7,0.9c-1.1,0.5-2.4,1.5-5.1,3.5c-0.3,0.2-0.9,0.5-1.3,1.2c-0.1,0.1-0.2,0.3-0.5,1.1
	c-0.3,0.6-0.5,1.2-0.6,1.6c-0.7-0.6-1.8-1.5-3.1-2.6c-1.8-1.6-2.9-2.7-3.1-2.5c-0.3,0.2,1.1,2.3,1,2.4c-0.1,0.1-0.5-0.7-1.4-1.4
	c-0.5-0.4-1-0.6-1.9-1c-2.5-1-3.7-1.6-3.8-1.4c-0.1,0.2,1.8,1.2,1.7,1.4c-0.1,0.2-1.3-0.5-2.9-0.8c-2.3-0.4-4.2-0.1-4.3,0.1
	c0,0.1,1.5,0.2,1.5,0.4c0,0.2-1.5,0.2-3.4,1c-1.3,0.6-2.3,1.4-2.2,1.5c0,0.1,0.4-0.1,1.4-0.4c0.6-0.1,1.5-0.4,1.6-0.3
	c0.1,0.1-1,0.5-2.2,1.5c-1.2,0.9-2.1,2.1-2,2.2c0.1,0.1,0.7-0.4,2.5-1.4c1.4-0.9,2.4-1.4,2.5-1.3c0.2,0.2-2.1,2.3-1.9,2.4
	c0.1,0.1,0.6-0.4,1.7-1c1.1-0.6,2.3-1.1,2.4-1c0.1,0.1-0.7,0.7-0.6,0.9c0.1,0.2,1-0.2,2.4-0.3c1-0.1,1.9,0,1.9,0.2
	c0,0.2-1.2,0.3-1.2,0.5c0,0.2,1,0.2,2.1,0.4c1.8,0.3,3.2,0.9,3.1,1.1c0,0.2-1.6-0.2-1.7,0c0,0.2,1.3,0.5,1.2,0.8c0,0.2-1,0-2.4,0.2
	c-0.9,0.1-2,0.4-2,0.5c0,0.2,2.2,0.1,2.3,0.4c0,0.3-1.8,0.4-4,1.5c-1.7,0.9-3,2-2.9,2.2c0.1,0.2,1.6-0.6,1.7-0.4
	c0.2,0.3-4.5,3-4.3,3.4c0.1,0.2,1.6-0.4,1.7-0.2c0.2,0.3-4.2,2.7-4,3c0.1,0.2,2.6-0.9,2.8-0.6c0.1,0.2-0.6,0.6-1.9,1.8
	c-0.5,0.4-1.8,1.7-1.7,1.8c0,0,0.2,0,2.5-1.4c1.6-1,2.1-1.4,2.3-1.2c0.2,0.3-1.7,2.4-1.5,2.5c0.2,0.2,2-1.5,2.2-1.6
	c1.2-1,1.8-1.7,1.9-1.6c0.2,0.1-0.6,1.4-0.4,1.5c0.3,0.2,3.6-4.2,4-4c0.2,0.1-0.5,1.3-0.3,1.4c0.1,0.1,0.6-0.6,1.4-1.5
	c0.8-0.9,1.9-1.9,2.1-1.7c0.2,0.1-0.4,1-0.2,1.3c0.2,0.2,0.9-0.3,1.6-0.7c0.7-0.4,1.8-0.7,3.5-0.7c-0.9,0.6-2.2,1.6-3.6,3
	c-1.4,1.4-2.8,3.1-2.6,3.3c0.2,0.2,1.6-1,1.7-0.8c0.1,0.2-0.9,1.2-2.1,2.9c-1.2,1.7-2.1,3.4-1.9,3.6c0.2,0.1,1.2-1.4,1.5-1.3
	c0.2,0.1-0.3,1.1-1.1,3.2c-0.9,2.2-0.9,2.6-0.8,2.7c0.2,0.1,1-1.3,1.2-1.2c0.3,0.2-1.9,4.6-1.6,4.8c0.2,0.1,1.8-2.4,2-2.3
	c0.2,0.1-0.5,1.2-0.9,3.1c-0.2,1-0.5,2.4-0.3,2.4c0.1,0,0.3-0.3,1.4-2.6c0.9-1.9,1.1-2.5,1.3-2.5c0.4,0.1-0.1,2.7,0.2,2.8
	c0.2,0,0.7-1.3,0.9-2.3c0.4-1.5,0.5-2.5,0.7-2.5c0.2,0,0.4,1.4,0.6,1.4c0.2,0,0.2-1,0.3-2.4c0-0.5,0.3-3.3,0.6-3.3
	c0.2,0,0.3,1.6,0.6,1.6c0.2,0,0.4-0.8,0.7-2c0.4-1.5,1.2-3.6,1.5-3.5c0.3,0,0.1,1.5,0.4,1.6c0.2,0,0.3-0.5,0.5-1
	c0.1-0.3,0.5-1,1.2-2.3c0.4-0.8,1.2-1.9,2.4-3.5c-0.1,0.7-0.2,1.7-0.2,2.9c-0.2,4.7,0.2,8.4,0.5,10c0.6,3.8,1.5,6.6,2.2,8.4
	c0.7,2.1,2.2,6.1,4.9,10.7c1.3,2.3,2.6,4.2,3.7,5.6c-2,0.6-3.4,1.3-4.3,1.7c0,0-1.3,0.7-3.1,1.3c-0.4,0.1-0.7,0.2-0.9,0.2H1.5
	c-0.8,0-1.5,0.7-1.5,1.5s0.7,1.5,1.5,1.5h885c0.8,0,1.5-0.7,1.5-1.5S887.3,66.2,886.5,66.2z M722.7,25.1c0.1,0.1-0.9,0.8-0.8,1
	c0.1,0.1,0.8-0.2,1.8-0.5c1.2-0.3,2.5-0.4,2.6-0.3c0.1,0.2-1.1,0.6-1.1,0.9c0,0.2,0.9,0.2,2.4,0.4c1.3,0.2,2.3,0.4,2.3,0.5
	c0,0.1-1.2-0.1-1.3,0.2c-0.1,0.3,1.5,0.8,1.5,1c-0.1,0.2-1.7-0.2-4.2-0.3c-1.8-0.1-3.1,0.1-4.4,0.5c-0.7,0.3-1.5,0.7-1.5,0.8
	c0.1,0.2,1.9-0.2,2,0c0,0.1-0.8,0.3-1.9,0.9c-0.1-0.2-0.2-0.4-0.3-0.5c-0.9-1.6-2-2.5-1.9-2.6c0.1-0.1,1.3,0.9,1.5,0.7
	c0.1-0.1-0.1-0.5-0.4-1.1c0.4-0.2,1-0.4,1.7-0.7C721.9,25.3,722.6,25,722.7,25.1z M716.9,32.4c-0.1-0.9-0.3-2.2-0.1-2.2
	c0.1,0,0.4,0.6,0.9,1.5C717.4,32,717.1,32.2,716.9,32.4z M718.6,31c-0.2-0.6-0.3-1-0.1-1.1c0.1-0.1,0.5,0.2,0.8,0.7
	C719.1,30.7,718.8,30.9,718.6,31z M719.5,25.6c0,0.1-0.3,0.3-0.6,0.6c-0.1-0.1-0.1-0.2-0.2-0.3C719.2,25.7,719.4,25.6,719.5,25.6z
	 M717.9,23.2c0,0-0.1,0.1-0.3,0.1c0-0.1-0.1-0.1-0.1-0.2C717.8,23.1,717.9,23.1,717.9,23.2z M716.4,23c-0.1,0.1-0.2,0.1-0.2,0.2
	c0,0.1,0.3,0.1,0.6,0.1c0.2,0.1,0.3,0.2,0.5,0.2c-0.2,0.1-0.4,0.1-0.7,0.2c-0.6-0.5-1.1-0.9-1-1C715.7,22.6,716,22.8,716.4,23z
	 M702.4,50.8c-0.6-1.2-1.9-3.9-3-7.1c-1.3-3.9-3-10.5-2.5-19.4c0.3,0.7,0.7,1.7,1.2,2.9c0.7,1.7,1,3,1.3,2.9c0.3,0,0.2-1.8,0.5-1.8
	c0.2,0,0.4,1,0.9,2.7c0.3,1.1,0.9,3,1.2,2.9c0.3,0,0.1-1.8,0.3-1.8c0.1,0,0.2,0.1,0.9,2.3c0.5,1.8,0.7,2.7,0.9,2.6
	c0.3,0,0.3-1.7,0.6-1.7c0.2,0,0.3,0.9,0.7,2.3c0.3,1.1,0.6,2.3,0.8,2.3c0.3,0,0.2-2.7,0.6-2.8c0.1,0,0.4,0.5,0.8,2.4
	c0.4,1.8,0.6,2.2,0.8,2.1c0.3,0,0.5-1.4,0.3-2.7c-0.1-1.4-0.6-2.2-0.5-2.3c0.2-0.1,1.8,2.8,2.1,2.7c0.2-0.1-0.3-1.5-0.6-2.3
	c-0.6-1.6-1.2-2.6-1.1-2.7c0.1-0.1,1.1,1.2,1.2,1.1c0.1-0.1-0.5-1.5-1.3-2.7c-0.8-1.4-1.5-2.3-1.4-2.3c0.1-0.1,1.4,1.2,1.6,1.1
	c0.2-0.2-0.8-1.7-1.6-2.8c-1.1-1.5-2-2.5-1.9-2.6c0.1-0.2,1.5,1,1.6,0.8c0.2-0.2-0.6-1.3-1.3-2.1c-1.2-1.4-2.1-2-2-2.2
	c0.1-0.2,1.6,0.5,2.6,1c1.3,0.7,2,1.2,2.2,1c0.3-0.3-0.5-1.4-0.3-1.6c0.2-0.2,1.2,0.7,2,1.6c1.2,1.4,1.7,2.4,1.9,2.3
	c0.3-0.1-0.1-1.7,0-1.8c0.1,0,0.4,0.6,0.9,1.7c-0.2,0.2-0.4,0.3-0.4,0.4c0,0,0.1,0,0.5-0.1c0.1,0.1,0.1,0.3,0.2,0.4
	c1.1,2.3,1.3,2.6,1.5,2.6c0.3-0.1-0.1-1.8,0.1-1.8c0.2,0,0.5,0.9,1.3,2.6c0.3,0.8,0.6,1.3,0.7,1.6c-0.1,0.1-0.2,0.3-0.1,0.3
	c0,0,0.1,0,0.3-0.1c0.2,0.3,0.2,0.4,0.3,0.4c0.1,0,0.1-0.2,0.1-0.5c0.4-0.2,1-0.5,1-0.5c0.1,0.1-0.5,0.5-1,1c-1.3,1.2-2.2,2.7-2,2.9
	c0.2,0.1,1-0.6,1.1-0.5c0.1,0.1-0.7,0.8-1.5,2c-0.5,0.9-0.9,1.9-0.7,2c0.2,0.1,1.6-1.9,1.8-1.8c0.4,0.2-1.4,3.9-1.1,4
	c0.1,0.1,0.9-1,1.3-1.9c0.7-1.2,0.9-2,1.1-2c0.2,0.1-0.3,2.5-0.1,2.6c0.1,0,0.2-0.2,0.9-1.8c0.6-1.4,0.9-2.1,1-2.1
	c0.2,0-0.1,1.4,0.1,1.4c0.1,0,0.3-0.2,1.1-2c0.6-1.2,0.9-1.9,1-1.9c0.2,0-0.2,1.3,0,1.4c0.2,0.1,0.6-0.8,1.5-1.8
	c0.6-0.7,1.4-1.4,1.5-1.2c0.2,0.1-0.5,1-0.2,1.2c0.2,0.2,0.7-0.3,1.7-0.8c0.8-0.4,1.9-0.9,2-0.8c0.1,0.1-0.7,0.6-1.6,1.7
	c-0.6,0.6-1.2,1.5-1.1,1.6c0.1,0.1,1.2-0.8,1.3-0.7c0.1,0.1-0.6,0.8-1.5,2c-0.6,0.9-1.4,2.1-1.2,2.2c0.1,0.1,1.1-0.9,1.2-0.8
	c0.1,0.1-0.5,0.7-1.1,1.8c-0.6,1-1.1,2-1,2.1c0.1,0.1,0.8-0.9,0.9-0.9c0.1,0.1-0.4,0.9-0.9,2.1c-0.2,0.6-0.6,1.7-0.5,1.8
	c0.2,0.1,1.4-2.2,1.6-2.1c0.1,0.1-0.3,0.7-0.4,1.8c-0.1,1,0,2.1,0.3,2.1c0.1,0,0.3-0.3,0.6-1.7c0.3-1.5,0.5-1.9,0.6-1.8
	c0.3,0,0.2,2.1,0.5,2.2c0.2,0,0.4-0.9,0.6-1.8c0.3-1.2,0.4-1.8,0.5-1.8c0.2,0,0.2,1.3,0.4,1.3c0.2,0,0.3-0.7,0.7-2.1
	c0.5-1.7,0.6-1.8,0.7-1.8c0.2,0,0.1,1.4,0.3,1.4c0.2,0,0.7-1.5,0.9-2.3c0.4-1.3,0.5-2.1,0.7-2.1c0.2,0,0.1,1.4,0.4,1.4
	c0.2,0,0.5-0.9,1-2.3c0.4-1,0.7-1.7,0.9-2.2c0.4,6.9-0.9,12.1-2,15.2c-0.9,2.5-1.9,4.6-2.4,5.5c-2,4-4.2,7.1-5.9,9.2
	c-1,0-1.7,0.2-2.2,0.4c-0.5,0.2-0.5,0.3-1.8,1c-0.4,0.2-0.7,0.4-1,0.5c-0.1,0-0.1,0-0.2-0.1c-0.3-0.1-0.9-0.4-2.1-1.1
	c-1.7-0.9-1.8-1.1-2.4-1.3c-0.6-0.3-1.6-0.5-2.8-0.5C707.7,59.9,704.9,55.9,702.4,50.8z"/>
</svg>
