<?xml version="1.0" encoding="utf-8"?>
<!-- Generator: Adobe Illustrator 25.2.0, SVG Export Plug-In . SVG Version: 6.00 Build 0)  -->
<svg version="1.1" id="Layer_1" xmlns="http://www.w3.org/2000/svg" xmlns:xlink="http://www.w3.org/1999/xlink" x="0px" y="0px"
	 viewBox="0 0 459.3 415" style="enable-background:new 0 0 459.3 415;" xml:space="preserve">
<style type="text/css">
	.st0{fill:url(#SVGID_1_);}
	.st1{fill:url(#SVGID_2_);}
	.st2{fill:url(#SVGID_3_);}
	.st3{fill:url(#SVGID_4_);}
	.st4{fill:url(#SVGID_5_);}
	.st5{fill:url(#SVGID_6_);}
	.st6{fill:url(#SVGID_7_);}
	.st7{fill:url(#SVGID_8_);}
	.st8{fill:url(#SVGID_9_);}
	.st9{fill:url(#SVGID_10_);}
	.st10{fill:url(#SVGID_11_);}
	.st11{fill:url(#SVGID_12_);}
	.st12{fill:url(#SVGID_13_);}
	.st13{fill:url(#SVGID_14_);}
	.st14{fill:url(#SVGID_15_);}
	.st15{fill:url(#SVGID_16_);}
	.st16{fill:url(#SVGID_17_);}
	.st17{fill:url(#SVGID_18_);}
	.st18{fill:url(#SVGID_19_);}
	.st19{fill:url(#SVGID_20_);}
	.st20{fill:url(#SVGID_21_);}
	.st21{fill:url(#SVGID_22_);}
	.st22{fill:url(#SVGID_23_);}
	.st23{fill:url(#SVGID_24_);}
	.st24{fill:#0B0E11;}
	.st25{display:none;}
	.st26{font-family:'ArialRoundedMTBold';}
	.st27{font-size:99.1182px;}
	.st28{display:inline;}
	.st29{display:inline;clip-path:url(#SVGID_26_);fill:url(#SVGID_27_);}
	.st30{fill:url(#SVGID_28_);}
	.st31{fill:url(#SVGID_29_);}
</style>
<g>
	
		<linearGradient id="SVGID_1_" gradientUnits="userSpaceOnUse" x1="100.7233" y1="-14.504" x2="100.7233" y2="295.4959" gradientTransform="matrix(1 0 0 -1 0 320.6688)">
		<stop  offset="0.1" style="stop-color:#F85858"/>
		<stop  offset="0.5" style="stop-color:#F076AB"/>
		<stop  offset="0.9" style="stop-color:#A07DDE"/>
	</linearGradient>
	<path class="st0" d="M120.5,210.7H77.6c0.7,3.4,1.5,6.7,2.3,10h43.8C122.6,217.4,121.4,214.1,120.5,210.7z"/>
	
		<linearGradient id="SVGID_2_" gradientUnits="userSpaceOnUse" x1="358.5537" y1="-14.504" x2="358.5537" y2="295.4959" gradientTransform="matrix(1 0 0 -1 0 320.6688)">
		<stop  offset="0.1" style="stop-color:#F85858"/>
		<stop  offset="0.5" style="stop-color:#F076AB"/>
		<stop  offset="0.9" style="stop-color:#A07DDE"/>
	</linearGradient>
	<path class="st1" d="M335.5,220.7h43.8c0.9-3.3,1.7-6.6,2.3-10h-42.9C337.8,214.1,336.7,217.4,335.5,220.7z"/>
	
		<linearGradient id="SVGID_3_" gradientUnits="userSpaceOnUse" x1="96.4713" y1="-14.504" x2="96.4713" y2="295.4959" gradientTransform="matrix(1 0 0 -1 0 320.6688)">
		<stop  offset="0.1" style="stop-color:#F85858"/>
		<stop  offset="0.5" style="stop-color:#F076AB"/>
		<stop  offset="0.9" style="stop-color:#A07DDE"/>
	</linearGradient>
	<path class="st2" d="M118.1,160H75.9c-0.6,4.3-0.9,8.7-1.1,13.1h41.8C116.8,168.6,117.4,164.3,118.1,160z"/>
	
		<linearGradient id="SVGID_4_" gradientUnits="userSpaceOnUse" x1="362.8057" y1="-14.504" x2="362.8057" y2="295.4959" gradientTransform="matrix(1 0 0 -1 0 320.6688)">
		<stop  offset="0.1" style="stop-color:#F85858"/>
		<stop  offset="0.5" style="stop-color:#F076AB"/>
		<stop  offset="0.9" style="stop-color:#A07DDE"/>
	</linearGradient>
	<path class="st3" d="M342.7,173.1h41.8c-0.2-4.4-0.6-8.8-1.1-13.1h-42.2C341.9,164.3,342.4,168.6,342.7,173.1z"/>
	
		<linearGradient id="SVGID_5_" gradientUnits="userSpaceOnUse" x1="363.627" y1="-14.504" x2="363.627" y2="295.4959" gradientTransform="matrix(1 0 0 -1 0 320.6688)">
		<stop  offset="0.1" style="stop-color:#F85858"/>
		<stop  offset="0.5" style="stop-color:#F076AB"/>
		<stop  offset="0.9" style="stop-color:#A07DDE"/>
	</linearGradient>
	<path class="st4" d="M384.6,176.9h-41.7c0,1.1,0.1,2.2,0.1,3.3c0,2.9-0.1,5.8-0.3,8.6h41.8c0.2-2.8,0.2-5.7,0.2-8.6
		C384.6,179.1,384.6,178,384.6,176.9z"/>
	
		<linearGradient id="SVGID_6_" gradientUnits="userSpaceOnUse" x1="95.65" y1="-14.504" x2="95.65" y2="295.4959" gradientTransform="matrix(1 0 0 -1 0 320.6688)">
		<stop  offset="0.1" style="stop-color:#F85858"/>
		<stop  offset="0.5" style="stop-color:#F076AB"/>
		<stop  offset="0.9" style="stop-color:#A07DDE"/>
	</linearGradient>
	<path class="st5" d="M116.3,180.2c0-1.1,0-2.2,0.1-3.3H74.7c0,1.1,0,2.2,0,3.3c0,2.9,0.1,5.8,0.2,8.6h41.8
		C116.4,185.9,116.3,183.1,116.3,180.2z"/>
	
		<linearGradient id="SVGID_7_" gradientUnits="userSpaceOnUse" x1="343.9016" y1="-14.504" x2="343.9016" y2="295.4959" gradientTransform="matrix(1 0 0 -1 0 320.6688)">
		<stop  offset="0.1" style="stop-color:#F85858"/>
		<stop  offset="0.5" style="stop-color:#F076AB"/>
		<stop  offset="0.9" style="stop-color:#A07DDE"/>
	</linearGradient>
	<path class="st6" d="M317,252.4h49.9c1.4-2.7,2.8-5.4,4-8.2h-47.7C321.2,247,319.1,249.7,317,252.4z"/>
	
		<linearGradient id="SVGID_8_" gradientUnits="userSpaceOnUse" x1="115.3754" y1="-14.504" x2="115.3754" y2="295.4959" gradientTransform="matrix(1 0 0 -1 0 320.6688)">
		<stop  offset="0.1" style="stop-color:#F85858"/>
		<stop  offset="0.5" style="stop-color:#F076AB"/>
		<stop  offset="0.9" style="stop-color:#A07DDE"/>
	</linearGradient>
	<path class="st7" d="M136.1,244.2H88.4c1.3,2.8,2.6,5.5,4,8.2h49.9C140.1,249.7,138.1,247,136.1,244.2z"/>
	
		<linearGradient id="SVGID_9_" gradientUnits="userSpaceOnUse" x1="97.1166" y1="-14.504" x2="97.1166" y2="295.4959" gradientTransform="matrix(1 0 0 -1 0 320.6688)">
		<stop  offset="0.1" style="stop-color:#F85858"/>
		<stop  offset="0.5" style="stop-color:#F076AB"/>
		<stop  offset="0.9" style="stop-color:#A07DDE"/>
	</linearGradient>
	<path class="st8" d="M117.1,193.7H75.2c0.3,3.7,0.8,7.4,1.3,11H119C118.2,201.1,117.6,197.4,117.1,193.7z"/>
	
		<linearGradient id="SVGID_10_" gradientUnits="userSpaceOnUse" x1="362.1603" y1="-14.504" x2="362.1603" y2="295.4959" gradientTransform="matrix(1 0 0 -1 0 320.6688)">
		<stop  offset="0.1" style="stop-color:#F85858"/>
		<stop  offset="0.5" style="stop-color:#F076AB"/>
		<stop  offset="0.9" style="stop-color:#A07DDE"/>
	</linearGradient>
	<path class="st9" d="M340.3,204.7h42.4c0.6-3.6,1-7.3,1.3-11h-41.9C341.7,197.4,341.1,201.1,340.3,204.7z"/>
	
		<linearGradient id="SVGID_11_" gradientUnits="userSpaceOnUse" x1="229.6385" y1="-14.504" x2="229.6385" y2="295.4959" gradientTransform="matrix(1 0 0 -1 0 320.6688)">
		<stop  offset="0.1" style="stop-color:#F85858"/>
		<stop  offset="0.5" style="stop-color:#F076AB"/>
		<stop  offset="0.9" style="stop-color:#A07DDE"/>
	</linearGradient>
	<path class="st10" d="M131.5,300.2h196.2c1.9-1.6,3.8-3.2,5.6-4.8H125.9C127.8,297,129.6,298.6,131.5,300.2z"/>
	
		<linearGradient id="SVGID_12_" gradientUnits="userSpaceOnUse" x1="229.6385" y1="-14.504" x2="229.6385" y2="295.4959" gradientTransform="matrix(1 0 0 -1 0 320.6688)">
		<stop  offset="0.1" style="stop-color:#F85858"/>
		<stop  offset="0.5" style="stop-color:#F076AB"/>
		<stop  offset="0.9" style="stop-color:#A07DDE"/>
	</linearGradient>
	<path class="st11" d="M155.1,316.1h149.2c2.4-1.3,4.7-2.7,7-4.1H148C150.3,313.4,152.7,314.8,155.1,316.1z"/>
	
		<linearGradient id="SVGID_13_" gradientUnits="userSpaceOnUse" x1="229.6385" y1="-14.504" x2="229.6385" y2="295.4959" gradientTransform="matrix(1 0 0 -1 0 320.6688)">
		<stop  offset="0.1" style="stop-color:#F85858"/>
		<stop  offset="0.5" style="stop-color:#F076AB"/>
		<stop  offset="0.9" style="stop-color:#A07DDE"/>
	</linearGradient>
	<path class="st12" d="M229.6,335.2c15.2,0,29.9-2.2,43.8-6.3h-87.7C199.7,333,214.4,335.2,229.6,335.2z"/>
	
		<linearGradient id="SVGID_14_" gradientUnits="userSpaceOnUse" x1="147.2875" y1="-14.504" x2="147.2875" y2="295.4959" gradientTransform="matrix(1 0 0 -1 0 320.6688)">
		<stop  offset="0.1" style="stop-color:#F85858"/>
		<stop  offset="0.5" style="stop-color:#F076AB"/>
		<stop  offset="0.9" style="stop-color:#A07DDE"/>
	</linearGradient>
	<path class="st13" d="M173.1,278.4h-63.4c1.6,2,3.3,4,5.1,5.9h70.1C180.8,282.5,176.9,280.6,173.1,278.4z"/>
	
		<linearGradient id="SVGID_15_" gradientUnits="userSpaceOnUse" x1="311.9895" y1="-14.504" x2="311.9895" y2="295.4959" gradientTransform="matrix(1 0 0 -1 0 320.6688)">
		<stop  offset="0.1" style="stop-color:#F85858"/>
		<stop  offset="0.5" style="stop-color:#F076AB"/>
		<stop  offset="0.9" style="stop-color:#A07DDE"/>
	</linearGradient>
	<path class="st14" d="M274.4,284.3h70.1c1.7-1.9,3.4-3.9,5.1-5.9h-63.4C282.4,280.6,278.5,282.5,274.4,284.3z"/>
	
		<linearGradient id="SVGID_16_" gradientUnits="userSpaceOnUse" x1="331.3091" y1="-14.504" x2="331.3091" y2="295.4959" gradientTransform="matrix(1 0 0 -1 0 320.6688)">
		<stop  offset="0.1" style="stop-color:#F85858"/>
		<stop  offset="0.5" style="stop-color:#F076AB"/>
		<stop  offset="0.9" style="stop-color:#A07DDE"/>
	</linearGradient>
	<path class="st15" d="M300.9,268.3h56.3c1.6-2.3,3.1-4.6,4.6-7h-53C306.2,263.7,303.6,266.1,300.9,268.3z"/>
	
		<linearGradient id="SVGID_17_" gradientUnits="userSpaceOnUse" x1="127.9679" y1="-14.504" x2="127.9679" y2="295.4959" gradientTransform="matrix(1 0 0 -1 0 320.6688)">
		<stop  offset="0.1" style="stop-color:#F85858"/>
		<stop  offset="0.5" style="stop-color:#F076AB"/>
		<stop  offset="0.9" style="stop-color:#A07DDE"/>
	</linearGradient>
	<path class="st16" d="M150.5,261.3h-53c1.5,2.4,3,4.7,4.6,7h56.3C155.7,266.1,153,263.7,150.5,261.3z"/>
	
		<linearGradient id="SVGID_18_" gradientUnits="userSpaceOnUse" x1="106.6727" y1="-14.504" x2="106.6727" y2="295.4959" gradientTransform="matrix(1 0 0 -1 0 320.6688)">
		<stop  offset="0.1" style="stop-color:#F85858"/>
		<stop  offset="0.5" style="stop-color:#F076AB"/>
		<stop  offset="0.9" style="stop-color:#A07DDE"/>
	</linearGradient>
	<path class="st17" d="M126.9,228H82.2c0.9,2.8,1.9,5.6,2.9,8.3h46.1C129.6,233.6,128.2,230.8,126.9,228z"/>
	
		<linearGradient id="SVGID_19_" gradientUnits="userSpaceOnUse" x1="352.6042" y1="-14.504" x2="352.6042" y2="295.4959" gradientTransform="matrix(1 0 0 -1 0 320.6688)">
		<stop  offset="0.1" style="stop-color:#F85858"/>
		<stop  offset="0.5" style="stop-color:#F076AB"/>
		<stop  offset="0.9" style="stop-color:#A07DDE"/>
	</linearGradient>
	<path class="st18" d="M328.1,236.3h46.1c1.1-2.7,2-5.5,2.9-8.3h-44.7C331.1,230.8,329.6,233.6,328.1,236.3z"/>
	
		<linearGradient id="SVGID_20_" gradientUnits="userSpaceOnUse" x1="354.4906" y1="-14.504" x2="354.4906" y2="295.4959" gradientTransform="matrix(1 0 0 -1 0 320.6688)">
		<stop  offset="0.1" style="stop-color:#F85858"/>
		<stop  offset="0.5" style="stop-color:#F076AB"/>
		<stop  offset="0.9" style="stop-color:#A07DDE"/>
	</linearGradient>
	<path class="st19" d="M336.1,141.3h43.6c-1.3-5.1-2.9-10.2-4.7-15.1h-45.7C331.9,131,334.2,136,336.1,141.3z"/>
	
		<linearGradient id="SVGID_21_" gradientUnits="userSpaceOnUse" x1="104.7864" y1="-14.504" x2="104.7864" y2="295.4959" gradientTransform="matrix(1 0 0 -1 0 320.6688)">
		<stop  offset="0.1" style="stop-color:#F85858"/>
		<stop  offset="0.5" style="stop-color:#F076AB"/>
		<stop  offset="0.9" style="stop-color:#A07DDE"/>
	</linearGradient>
	<path class="st20" d="M130,126.2H84.3c-1.8,4.9-3.4,10-4.7,15.1h43.6C125.1,136,127.4,131,130,126.2z"/>
	
		<linearGradient id="SVGID_22_" gradientUnits="userSpaceOnUse" x1="99.5202" y1="-14.504" x2="99.5202" y2="295.4959" gradientTransform="matrix(1 0 0 -1 0 320.6688)">
		<stop  offset="0.1" style="stop-color:#F85858"/>
		<stop  offset="0.5" style="stop-color:#F076AB"/>
		<stop  offset="0.9" style="stop-color:#A07DDE"/>
	</linearGradient>
	<path class="st21" d="M122.7,142.7H79.2c-1.2,4.8-2.1,9.6-2.9,14.5h42.3C119.7,152.2,121.1,147.4,122.7,142.7z"/>
	
		<linearGradient id="SVGID_23_" gradientUnits="userSpaceOnUse" x1="359.7568" y1="-14.504" x2="359.7568" y2="295.4959" gradientTransform="matrix(1 0 0 -1 0 320.6688)">
		<stop  offset="0.1" style="stop-color:#F85858"/>
		<stop  offset="0.5" style="stop-color:#F076AB"/>
		<stop  offset="0.9" style="stop-color:#A07DDE"/>
	</linearGradient>
	<path class="st22" d="M340.6,157.2h42.3c-0.7-4.9-1.7-9.7-2.9-14.5h-43.5C338.2,147.4,339.6,152.2,340.6,157.2z"/>
	
		<linearGradient id="SVGID_24_" gradientUnits="userSpaceOnUse" x1="229.6385" y1="-14.504" x2="229.6385" y2="295.4959" gradientTransform="matrix(1 0 0 -1 0 320.6688)">
		<stop  offset="0.1" style="stop-color:#F85858"/>
		<stop  offset="0.5" style="stop-color:#F076AB"/>
		<stop  offset="0.9" style="stop-color:#A07DDE"/>
	</linearGradient>
	<path class="st23" d="M229.6,66.9c42.6,0,79.7,23.5,99.1,58.3h45.9c-22.2-58.5-78.7-100-144.9-100s-122.8,41.5-144.9,100h45.9
		C149.9,90.4,187,66.9,229.6,66.9z"/>
</g>
<path class="st24" d="M352,178.7c-0.3,0.4-2.6-0.6-13.3-4.9c-2.8-1.2-5.1-2.1-6.9-2.8c-3.2-1.2-4.9-1.7-5.2-1.3
	c-0.4,0.5,1.1,2.1,2.9,3.9c2.8,2.7,6.5,5.8,6.1,6.3c-0.4,0.5-4.1-1.7-12.7-6.4c-7.5-4.1-10.3-5.5-10.6-5.1c0,0,0,0,0,0
	c-0.1,0.3,1,1.4,2.4,2.5c0.9,0.8,1.9,1.7,2.5,2.3c0,0,0.1,0.1,0.1,0.1c0.4,0.5,0.7,0.9,0.6,1.1c-0.3,0.5-2.9-0.5-6.5-2.1
	c-1.8-0.8-3.9-1.8-6.2-2.8c-2.6-1.2-4.8-2.2-6.4-3c-2.4-1.1-3.8-1.6-4.1-1.3c-0.4,0.6,3.8,3.7,4.3,5.1c0.1,0.2,0.1,0.3,0,0.4
	c-0.5,0.8-4.2-1-10-2.5c-1.1-0.3-2.2-0.5-3.3-0.8c-2.7-0.6-5.3-1-7.2-1.1c-2-0.1-3.4,0-3.5,0.5c-0.4,1,6.1,3.1,5.8,4.7
	c-0.3,1.4-4.9,1-13.1,2c-7.3,0.9-12.7,2.3-12.6,2.8c0,0.5,6.8-0.4,7.1,0.9c0.1,0.3-0.2,0.6-0.6,1c-2,1.6-7.7,3.7-7.5,4.7
	c0.4,1.2,9.4-1.1,22.7-1.7c4.9-0.2,9-0.1,12.9,0.3c3.9,0.4,7.5,1.2,11,2.5c4.1,1.4,8.2,3.5,8,4.3c-0.4,1.2-10.4-1.2-10.7-0.2
	s9.4,3,19.6,9.9c7.1,4.8,12.3,10.6,11.8,11.3c-0.6,0.8-8.3-4.5-8.8-3.8c-0.2,0.4,2.7,2.6,5.7,5.5c6.9,6.7,11.8,14.7,10.8,15.6
	c-0.8,0.8-5.7-3.5-6.2-2.9c-0.5,0.6,4,4.5,7.9,11.2c2.9,5,4.9,10.6,4,11.1c-1.2,0.7-8.5-10.5-10.1-9.6c-2.1,1.2,7.5,21.3,6.1,22
	c-0.7,0.4-4.7-5.6-7.3-10.2c-2.4-4.3-3.8-7.6-4.8-9.3c-0.5-1-0.9-1.5-1.2-1.4c-0.1,0-0.1,0.1-0.2,0.2c-0.7,1.8,1.7,13.5,0.6,13.8
	c-0.3,0.1-1.1-1-4.7-9.6c-1.4-3.2-2.5-5.8-3.2-7.6c0,0,0,0,0,0c-1.1-2.5-1.7-3.8-2.1-3.7c-1,0.2,0.5,7.5-0.6,7.8
	c-0.1,0-0.2,0-0.3-0.1c0,0,0,0,0,0c-0.5-0.4-1.6-2-4.2-7.3c-0.5-1.1-1.1-2.3-1.7-3.7c-3.1-6.6-4.7-10.6-5.4-10.4
	c-0.8,0.2,1,7-0.2,7.5c-1,0.4-3.1-4.2-8.2-10c-3.4-3.8-7.4-7.3-8.3-6.7c-0.9,0.7,2.5,5.5,1.3,6.6c-0.4,0.3-1.1,0.1-2.1-0.4
	c-1.6-0.8-3.9-2.3-7.2-4c-0.9-0.5-1.9-1-2.9-1.5c-3.4-1.7-7-3.1-7.8-2.8c-0.1,0-0.1,0-0.1,0.1c-0.4,0.7,3.6,3.3,8.7,9.2
	c3,3.5,6.4,8.2,5.7,8.9s-6.4-4.3-7-3.6c-0.5,0.6,3.3,4.6,7.9,11.1c3.3,4.7,7.4,11.3,6.6,12c-0.8,0.6-6.1-5.1-6.7-4.6
	c-0.5,0.4,2.5,4,6.1,10c3.1,5.2,6,11,5.4,11.4c-0.6,0.4-4.5-5.1-5.1-4.7c-0.5,0.4,2.2,4.7,4.8,11.6c1.2,3.2,3.3,9.2,2.5,9.6
	c-1.1,0.5-7.9-12-8.9-11.5c-0.5,0.3,1.5,3.9,2.1,9.7c0.6,5.6-0.3,11.5-1.4,11.6c-0.6,0.1-1.6-1.5-3.3-9.1
	c-1.8-8.2-2.8-10.2-3.4-10.1c-1.5,0.2-1.1,11.7-2.5,11.8c-0.6,0.1-1.4-2-2.1-4.8c-0.4-1.5-0.8-3.2-1.2-4.9c-1.6-6.3-2.1-10-2.8-10
	c-0.6,0-0.9,2.4-1.3,4.4c0,0,0,0,0,0c-0.3,1.4-0.6,2.7-1.1,2.7c-0.6,0-1.1-1.5-1.9-4.5c0,0,0,0,0,0c-0.5-1.8-1.1-4-1.9-6.8
	c-2.7-9.3-3.4-9.9-3.7-9.9c-0.9,0.1-0.5,5.4-1.1,7.1c-0.1,0.3-0.2,0.5-0.4,0.5c-0.2,0-0.5-0.2-0.7-0.5c-1.3-1.9-3.2-8.2-4.4-12
	c-2.2-7.2-3-11.5-3.9-11.4c-1.2,0.1-0.8,7.5-2.2,7.7c-1.2,0.1-2.6-5.1-5.4-12.5c-0.1-0.1-0.1-0.1-0.1-0.2c-1.2-2.9-5.5-2.1-5.5,1
	c0,1.5,0,3.1,0,4.6c0.6,29,6.4,51,11.2,65c4.8,13.8,10.3,25.2,12.9,30.3c2.2,4.5,9.6,19.2,22.4,37.5c3.8,5.6,8.4,11.8,13.8,18.5
	c0.3,0.4,0.6,0.7,0.9,1.1c1,1.5,1.5,3.2,1.5,5c0,4.9-4.2,8.8-9.3,8.8c-1.9,0-3.6-0.5-5-1.4c-11.2-16-19.7-30.2-26-41.5
	c-1.5-2.6-13.6-24.3-20.8-45.4c-2.7-7.8-6.6-19.7-9.2-35.9c-1.1-7.1-3.2-22.7-2.2-42.8c0-0.9,0-1.7,0.1-2.5c0.2-2.9-3.5-4.2-5.1-1.8
	c-1.9,2.7-3.2,5-4.2,6.7c-0.1,0.1-0.2,0.3-0.2,0.4c-3.1,5.8-4.7,8.7-5.2,9.9c-0.9,2.3-1.7,4.5-2.3,4.4c-1.1-0.1-0.5-6.5-1.6-6.7
	c-1.3-0.3-4.4,8.4-6.2,15c-1.5,5.1-2.1,8.6-3,8.6c-1.3,0-1.5-6.9-2.4-6.9c-1.2,0.1-2.2,11.7-2.4,14c-0.5,5.8-0.6,10-1.3,10.1
	c-0.8,0.1-1.4-5.8-2.5-5.8c-0.9,0-1.1,4.4-2.9,10.8c-1.2,4.2-3.1,9.8-4,9.6c-1.2-0.2,0.7-11.5-0.8-11.8c-0.7-0.2-1.8,2.5-5.6,10.5
	c-4.7,10.1-5.4,11.3-5.8,11.2c-0.7-0.2,0.3-6.1,1.4-10.3c1.7-6.9,3.9-11.5,4.1-12.9c0-0.1,0-0.2,0-0.2c0,0,0,0,0,0
	c0-0.1,0-0.2-0.1-0.2c-1-0.6-7.7,10.2-8.7,9.6c-0.1,0-0.1-0.1-0.1-0.2c-0.5-2.2,8.1-19.6,6.8-20.3c-0.6-0.4-3.6,4.4-4.8,5
	c-0.1,0.1-0.2,0.1-0.3,0.1c-0.2-0.1-0.3-0.7,0.5-3c0.5-1.7,1.5-4.3,3-8.4c3.4-9.1,5.3-13.1,4.6-13.6c-0.9-0.7-5.5,5.8-6.2,5.3
	c-0.7-0.4,2.9-7.7,8.2-15.1c5.1-7.1,9.7-11.5,9.1-12.2c-0.7-0.8-6.7,4.2-7.4,3.4c-0.8-0.9,5.1-8,11.2-14c2.5-2.4,5-4.6,7.2-6.4
	c2.4-1.9,0.3-5.8-2.7-4.8c-1.4,0.5-2.7,1-3.7,1.5c-2.5,1.2-5,2.9-6.2,3c-0.2,0-0.4,0-0.6-0.2c-1-1,1.6-4.8,0.8-5.4
	c-0.9-0.7-5.5,3.6-8.9,7.4s-5.3,6.7-5.8,6.4c-0.6-0.4,2.1-5.6,1.3-6.1c-1.6-1.1-15.6,17.9-16.8,17c-0.6-0.4,2.6-5.6,1.8-6.2
	c-0.6-0.5-3.3,2.5-8.2,6.9c-0.7,0.6-8.5,7.5-9.2,6.8c-0.8-0.7,7.5-9.7,6.4-10.8c-0.5-0.5-2.7,1.1-9.6,5.3
	c-9.6,5.9-10.4,6.1-10.5,5.9c-0.4-0.6,5.4-6,7.4-7.8c3.6-3.4,6.2-5.4,7.4-6.6c0.6-0.6,0.8-1,0.8-1.2c0,0,0,0,0,0
	c-0.2-0.5-1.7-0.2-3.6,0.4c-3.4,1-7.9,2.7-8.2,2.1c-0.6-1.3,17.8-11.2,17.1-12.6c-0.4-0.8-6.7,1.9-7.2,1c-0.9-1.8,19-13.5,18.4-14.6
	c-0.3-0.6-6.6,2.7-7.1,1.9s5.1-5.8,12.2-9.5c9.1-4.7,17-5.2,16.9-6.3c-0.1-1.2-9.6-0.7-9.7-1.7c0-0.1,0.1-0.3,0.4-0.4
	c0.5-0.3,1.6-0.7,2.9-1c1.5-0.4,3.3-0.7,5-0.9c6.1-0.8,10.1-0.1,10.3-0.9c0.2-0.9-5.3-2.5-5.1-3.2c0.2-0.8,6.9,0.5,7.1-0.1
	c0.1-0.4-2.7-1.8-7-3c0,0,0,0,0,0c-1.9-0.6-4.1-1.1-6.4-1.6c-5-0.9-9.1-1-9.1-1.7c0-0.4,1-0.7,2.1-1.1h0c1.5-0.4,3.2-0.8,3.2-1.2
	c-0.1-0.7-4-1.1-8.1-0.8c-0.9,0.1-1.7,0.2-2.5,0.3c-4.4,0.6-7.2,1.8-7.5,1c-0.4-0.7,2.5-2.7,2.7-3.4c0-0.1,0-0.1,0-0.2
	c-0.2-0.3-1.3,0-2.9,0.7c-1.9,0.8-4.6,2.1-7.2,3.5c-4.5,2.6-6.9,4.5-7.2,4.2c-0.5-0.6,5.7-6.4,7.7-9.1c0.5-0.6,0.7-1.1,0.5-1.3
	c-0.5-0.6-4.4,1.7-10.4,5.3c-0.1,0.1-0.2,0.1-0.3,0.2c-7.5,4.5-10.1,6.5-10.5,6.1c-0.5-0.6,3.3-5.4,8.3-9.3c0.3-0.2,0.6-0.5,0.9-0.7
	c4.7-3.4,8.6-4.9,8.4-5.5c-0.2-0.6-4.5,0.5-6.8,1.1c-1.4,0.4-2.5,0.7-3.4,1c-1.7,0.5-2.4,0.8-2.6,0.6c-0.2-0.4,2-2.3,5.4-4.3
	c0,0,0,0,0,0c1.2-0.7,2.6-1.4,4-2c7.8-3.5,14.4-3.4,14.4-4.4c0-0.7-2.9-1-4.8-1.4c-1-0.2-1.7-0.3-1.7-0.5c0-0.1,0-0.1,0.2-0.2
	c1.1-0.7,8.2-1.8,16.3-0.6c0.5,0.1,1.1,0.2,1.6,0.3c2.2,0.4,4.3,1,6,1.5c3.9,1.2,6.3,2.3,6.5,1.9c0.3-0.6-3.9-3.1-6-4.7
	c-0.8-0.6-1.2-1-1.1-1.2c0.2-0.6,5.5,1.6,16.1,6.1c1.3,0.6,2.4,1,3.4,1.5c1.9,0.9,3.3,1.7,4.8,2.9c3.8,3,5.7,6.3,6.1,6.1
	c0.3-0.2-0.7-2-1.8-4c-1.4-2.7-3-5.8-2.3-6.3c0.9-0.7,5.4,3.8,13.1,10.6c1.9,1.7,3.7,3.3,5.4,4.7c1.7,1.4,3.2,2.7,4.5,3.9
	c1.5,1.3,3.8,0.7,4.5-1.1c0.3-0.9,0.7-1.9,1.1-2.9c1.4-3.3,2.1-4.3,2.3-4.7c1.9-3,4.3-4.4,5.5-5.3c9.6-7.2,15.1-11.3,19.4-13.6
	c0.8-0.4,1.6-0.8,2.3-1.1c7.7-3.4,15.5-4.6,15.8-3.7c0.2,0.4-1.5,1.4-3.3,2.4c-2.2,1.2-4.6,2.6-4.4,3.2c0.5,1,8.7-2.2,20.5-2.6
	c0.8,0,1.5,0,2.4,0c7.2,0,14.1,1.1,14.1,2.1c0,1.1-9,1.8-8.9,2.6c0.1,0.7,6.3,0.3,14.1,1.6c9.2,1.5,17.2,4.9,17,5.9
	s-9.2-0.5-9.3,0.3c-0.1,0.6,5.2,1.7,12.6,4.5c4.6,1.7,11.4,4.6,11.2,5.4c-0.3,1.2-15-2.7-15.4-1.5c-0.2,0.7,5.2,2.4,12.7,7
	C347.3,173.1,352.7,177.2,352,178.7z"/>
<g class="st25">
	<defs>
		<text id="SVGID_25_" transform="matrix(1 0 0 1 42.0149 432.7233)" class="st26 st27">quixotic</text>
	</defs>
	<clipPath id="SVGID_26_" class="st28">
		<use xlink:href="#SVGID_25_"  style="overflow:visible;"/>
	</clipPath>
	<linearGradient id="SVGID_27_" gradientUnits="userSpaceOnUse" x1="45.8792" y1="405.7386" x2="417.0696" y2="405.7386">
		<stop  offset="0" style="stop-color:#A07DDE"/>
		<stop  offset="0.2" style="stop-color:#ED69C2"/>
		<stop  offset="0.4" style="stop-color:#F65B68"/>
		<stop  offset="0.6" style="stop-color:#FFDC7B"/>
		<stop  offset="0.8" style="stop-color:#2AC68E"/>
		<stop  offset="1" style="stop-color:#36A2C6"/>
	</linearGradient>
	<rect x="45.9" y="357.9" class="st29" width="371.2" height="95.6"/>
</g>
<linearGradient id="SVGID_28_" gradientUnits="userSpaceOnUse" x1="182.76" y1="19.8972" x2="312.485" y2="149.6222" gradientTransform="matrix(1 0 0 -1 0 320.6688)">
	<stop  offset="0" style="stop-color:#2AC68E"/>
	<stop  offset="0.5" style="stop-color:#3DDDD8"/>
	<stop  offset="1" style="stop-color:#008CE3"/>
</linearGradient>
<path class="st30" d="M328.5,155.6c-7.5-4.6-12.9-6.3-12.7-7c0.4-1.2,15.1,2.7,15.4,1.5c0.2-0.8-6.6-3.7-11.2-5.4
	c-7.4-2.8-12.7-3.9-12.6-4.5c0.1-0.8,9.1,0.7,9.3-0.3c0.2-1-7.8-4.4-17-5.9c-7.8-1.3-14-0.9-14.1-1.6c-0.1-0.8,8.9-1.5,8.9-2.6
	c0-1-6.9-2.1-14.1-2.1c-13.1,0-22.4,3.7-22.9,2.6c-0.4-1.1,8.1-4.7,7.7-5.6c-0.3-0.9-8.1,0.3-15.8,3.7c-4.6,1.9-10.3,6.2-21.7,14.7
	c-1.2,0.9-3.6,2.3-5.5,5.3c-0.2,0.4-0.9,1.4-2.3,4.7c-0.4,1-0.8,2-1.1,2.9c-0.7,1.8-3,2.4-4.5,1.1c-2.7-2.3-6.1-5.2-9.9-8.6
	c-7.7-6.8-12.2-11.3-13.1-10.6c-1.1,0.9,4.7,9.9,4.1,10.3c-0.4,0.2-2.3-3.1-6.1-6.1c-2.3-1.8-4.2-2.7-8.2-4.4
	c-10.6-4.5-15.9-6.7-16.1-6.1c-0.4,0.8,7.5,5.1,7.1,5.9c-0.3,0.7-5.3-2-12.5-3.4c-9.6-1.8-18.1-0.2-18.1,0.5c0,0.6,6.5,0.9,6.5,1.9
	s-6.6,0.9-14.4,4.4c-5.5,2.4-9.7,5.8-9.4,6.3c0.2,0.3,1.9-0.5,6-1.6c2.3-0.6,6.6-1.7,6.8-1.1c0.2,0.6-4.2,2.3-9.3,6.2
	c-5,3.9-8.8,8.7-8.3,9.3c0.4,0.4,3-1.6,10.5-6.1c6.1-3.7,10.2-6.1,10.7-5.5c0.8,1-8.8,9.7-8.2,10.4c0.3,0.3,2.7-1.6,7.2-4.2
	c4.8-2.7,9.7-4.8,10.1-4.2c0.3,0.6-3.1,2.8-2.7,3.6c0.4,0.9,4.2-0.9,10-1.3c4.1-0.3,8,0.1,8.1,0.8s-5.3,1.4-5.3,2.3
	c0,0.7,4.1,0.8,9.1,1.7c7.5,1.4,13.5,4,13.4,4.6c-0.2,0.6-6.9-0.7-7.1,0.1c-0.2,0.7,5.3,2.3,5.1,3.2c-0.2,0.8-4.2,0.1-10.3,0.9
	c-4,0.5-8.4,1.6-8.3,2.3c0.1,1,9.6,0.5,9.7,1.7c0.1,1.1-7.8,1.6-16.9,6.3c-7.1,3.7-12.7,8.7-12.2,9.5s6.8-2.5,7.1-1.9
	c0.6,1.1-19.3,12.8-18.4,14.6c0.5,0.9,6.8-1.8,7.2-1c0.7,1.4-17.7,11.3-17.1,12.6c0.5,0.9,11.1-3.8,11.8-2.5
	c0.4,0.7-2.6,2.7-8.1,7.8c-2,1.8-7.8,7.2-7.4,7.8c0.1,0.2,0.9,0,10.5-5.9c6.9-4.2,9.1-5.8,9.6-5.3c1.1,1.1-7.2,10.1-6.4,10.8
	c0.7,0.7,8.5-6.2,9.2-6.8c4.9-4.4,7.6-7.4,8.2-6.9c0.8,0.6-2.4,5.8-1.8,6.2c1.2,0.9,15.2-18.1,16.8-17c0.8,0.5-1.9,5.7-1.3,6.1
	c0.5,0.3,2.4-2.6,5.8-6.4c3.4-3.8,8-8.1,8.9-7.4c0.8,0.6-1.8,4.4-0.8,5.4c0.9,0.8,3.9-1.4,6.8-2.8c1-0.5,2.3-1,3.7-1.5
	c3-1,5.1,2.9,2.7,4.8c-2.2,1.8-4.7,4-7.2,6.4c-6.1,6-12,13.1-11.2,14c0.7,0.8,6.7-4.2,7.4-3.4c0.6,0.7-4,5.1-9.1,12.2
	c-5.3,7.4-8.9,14.7-8.2,15.1c0.7,0.5,5.3-6,6.2-5.3c0.7,0.5-1.2,4.5-4.6,13.6c-3.7,9.5-3.9,11.2-3.5,11.4c0.8,0.4,4.4-5.5,5.1-5.1
	c1.3,0.7-8.1,19.7-6.7,20.5c1,0.6,7.7-10.2,8.7-9.6c0.7,0.4-2,5.2-4,13.3c-1.1,4.2-2.1,10.1-1.4,10.3c0.4,0.1,1.1-1.1,5.8-11.2
	c3.8-8,4.9-10.7,5.6-10.5c1.5,0.3-0.4,11.6,0.8,11.8c0.9,0.2,2.8-5.4,4-9.6c1.8-6.4,2-10.8,2.9-10.8c1.1,0,1.7,5.9,2.5,5.8
	c0.7-0.1,0.8-4.3,1.3-10.1c0.2-2.3,1.2-13.9,2.4-14c0.9,0,1.1,6.9,2.4,6.9c0.9,0,1.5-3.5,3-8.6c1.8-6.6,4.9-15.3,6.2-15
	c1.1,0.2,0.5,6.6,1.6,6.7c0.6,0.1,1.4-2.1,2.3-4.4c0.5-1.2,2.1-4.1,5.2-9.9c1-1.8,2.4-4.2,4.4-7.1c1.6-2.4,5.3-1.1,5.1,1.8
	c-0.1,0.8-0.1,1.6-0.1,2.5c-1,20.1,1.1,35.7,2.2,42.8c2.6,16.2,6.5,28.1,9.2,35.9c7.2,21.1,19.3,42.8,20.8,45.4
	c8.1,14.6,19.8,33.8,36.2,55.6l0,0c0.3,0.4,0.6,0.8,0.9,1.2c1.8,2,4.5,3.3,7.5,3.3c5.4,0,9.9-4.2,9.9-9.4c0-2-0.7-3.9-1.8-5.5
	c-0.4-0.5-0.8-1-1.3-1.4c-11.6-12.7-20.6-24.5-27.3-34.2c-12.8-18.3-20.2-33-22.4-37.5c-2.6-5.1-8.1-16.5-12.9-30.3
	c-5-14.7-11.2-38.3-11.2-69.6c0-3.1,4.3-3.9,5.5-1c0,0.1,0,0.1,0.1,0.2c2.8,7.4,4.2,12.6,5.4,12.5c1.4-0.2,1-7.6,2.2-7.7
	c0.9-0.1,1.7,4.2,3.9,11.4c1.4,4.5,3.8,12.7,5.1,12.5c1.2-0.2,0.5-7.6,1.5-7.7c0.3,0,1,0.6,3.7,9.9c2.1,7.6,2.9,11.3,3.8,11.3
	c1.2-0.1,1.4-7.1,2.4-7.1c0.7,0,1.2,3.7,2.8,10c1.2,4.8,2.4,9.8,3.4,9.7c1.4-0.1,1-11.6,2.5-11.8c0.6-0.1,1.6,1.9,3.4,10.1
	c1.7,7.6,2.7,9.2,3.3,9.1c1.1-0.1,2-6,1.4-11.6c-0.6-5.8-2.6-9.4-2.1-9.7c1-0.5,7.8,12,8.9,11.5c0.8-0.4-1.3-6.4-2.5-9.6
	c-2.6-6.9-5.3-11.2-4.8-11.6c0.6-0.4,4.5,5.1,5.1,4.7s-2.3-6.2-5.4-11.4c-3.6-6-6.6-9.6-6.1-10c0.6-0.5,5.9,5.2,6.7,4.6
	c0.8-0.7-3.3-7.3-6.6-12c-4.6-6.5-8.4-10.5-7.9-11.1c0.6-0.7,6.3,4.3,7,3.6c0.7-0.7-2.7-5.4-5.7-8.9c-5.1-5.9-9.1-8.5-8.7-9.2
	c0.5-0.8,6.6,1.9,10.9,4.2c5.5,2.9,8.4,5.2,9.3,4.4c1.2-1.1-2.2-5.9-1.3-6.6c0.9-0.6,4.9,2.9,8.3,6.7c5.1,5.8,7.2,10.4,8.2,10
	c1.2-0.5-0.6-7.3,0.2-7.5c0.7-0.2,2.3,3.8,5.4,10.4c4.6,9.8,5.7,11.2,6.2,11.1c1.1-0.3-0.4-7.6,0.6-7.8c0.7-0.2,2.1,3.7,5.4,11.3
	c3.6,8.6,4.4,9.7,4.7,9.6c1.2-0.3-1.7-13.6-0.4-14c0.8-0.2,2.2,4.1,5.9,10.7c2.6,4.6,6.6,10.6,7.3,10.2c1.4-0.7-8.2-20.8-6.1-22
	c1.6-0.9,8.9,10.3,10.1,9.6c0.9-0.5-1.1-6.1-4-11.1c-3.9-6.7-8.4-10.6-7.9-11.2s5.4,3.7,6.2,2.9c1-0.9-3.9-8.9-10.8-15.6
	c-3-2.9-5.9-5.1-5.7-5.5c0.5-0.7,8.2,4.6,8.8,3.8c0.5-0.7-4.7-6.5-11.8-11.3c-10.2-6.9-19.9-8.9-19.6-9.9s10.3,1.4,10.7,0.2
	c0.2-0.8-3.9-2.9-8-4.3c-6.9-2.5-13.9-3.2-23.8-2.8c-13.3,0.6-22.3,2.9-22.7,1.7c-0.3-1.2,8.5-4.1,8.1-5.7c-0.3-1.3-7.1-0.4-7.1-0.9
	c-0.1-0.5,5.3-1.9,12.6-2.8c8.2-1,12.8-0.6,13.1-2c0.3-1.6-6.2-3.7-5.8-4.7c0.3-1.1,7.3-0.3,14,1.4c5.8,1.5,9.5,3.3,10,2.5
	c0.6-1-4.7-4.8-4.3-5.5c0.4-0.6,4.3,1.4,10.5,4.3c6.8,3.1,12.2,5.6,12.7,4.9c0.5-0.9-6-5.5-5.5-6.1c0.3-0.4,3.1,1,10.6,5.1
	c8.6,4.7,12.3,6.9,12.7,6.4c0.6-0.8-9.9-8.8-9-10.2c0.4-0.6,4.3,0.9,12.1,4.1c10.7,4.3,13,5.3,13.3,4.9
	C339.1,162.8,333.6,158.7,328.5,155.6z"/>
<linearGradient id="SVGID_29_" gradientUnits="userSpaceOnUse" x1="238.8215" y1="285.2143" x2="219.0191" y2="118.4027">
	<stop  offset="0" style="stop-color:#2BC492;stop-opacity:0"/>
	<stop  offset="0.1479" style="stop-color:#30C195;stop-opacity:0.1585"/>
	<stop  offset="0.3316" style="stop-color:#40B89F;stop-opacity:0.3552"/>
	<stop  offset="0.534" style="stop-color:#59A8B0;stop-opacity:0.5721"/>
	<stop  offset="0.7485" style="stop-color:#7C93C6;stop-opacity:0.8019"/>
	<stop  offset="0.9334" style="stop-color:#A07DDE"/>
</linearGradient>
<path class="st31" d="M328.5,155.6c-7.5-4.6-12.9-6.3-12.7-7c0.4-1.2,15.1,2.7,15.4,1.5c0.2-0.8-6.6-3.7-11.2-5.4
	c-7.4-2.8-12.7-3.9-12.6-4.5c0.1-0.8,9.1,0.7,9.3-0.3c0.2-1-7.8-4.4-17-5.9c-7.8-1.3-14-0.9-14.1-1.6c-0.1-0.8,8.9-1.5,8.9-2.6
	c0-1-6.9-2.1-14.1-2.1c-13.1,0-22.4,3.7-22.9,2.6c-0.4-1.1,8.1-4.7,7.7-5.6c-0.3-0.9-8.1,0.3-15.8,3.7c-4.6,1.9-10.3,6.2-21.7,14.7
	c-1.2,0.9-3.6,2.3-5.5,5.3c-0.2,0.4-0.9,1.4-2.3,4.7c-0.4,1-0.8,2-1.1,2.9c-0.7,1.8-3,2.4-4.5,1.1c-2.7-2.3-6.1-5.2-9.9-8.6
	c-7.7-6.8-12.2-11.3-13.1-10.6c-1.1,0.9,4.7,9.9,4.1,10.3c-0.4,0.2-2.3-3.1-6.1-6.1c-2.3-1.8-4.2-2.7-8.2-4.4
	c-10.6-4.5-15.9-6.7-16.1-6.1c-0.4,0.8,7.5,5.1,7.1,5.9c-0.3,0.7-5.3-2-12.5-3.4c-9.6-1.8-18.1-0.2-18.1,0.5c0,0.6,6.5,0.9,6.5,1.9
	s-6.6,0.9-14.4,4.4c-5.5,2.4-9.7,5.8-9.4,6.3c0.2,0.3,1.9-0.5,6-1.6c2.3-0.6,6.6-1.7,6.8-1.1c0.2,0.6-4.2,2.3-9.3,6.2
	c-5,3.9-8.8,8.7-8.3,9.3c0.4,0.4,3-1.6,10.5-6.1c6.1-3.7,10.2-6.1,10.7-5.5c0.8,1-8.8,9.7-8.2,10.4c0.3,0.3,2.7-1.6,7.2-4.2
	c4.8-2.7,9.7-4.8,10.1-4.2c0.3,0.6-3.1,2.8-2.7,3.6c0.4,0.9,4.2-0.9,10-1.3c4.1-0.3,8,0.1,8.1,0.8s-5.3,1.4-5.3,2.3
	c0,0.7,4.1,0.8,9.1,1.7c7.5,1.4,13.5,4,13.4,4.6c-0.2,0.6-6.9-0.7-7.1,0.1c-0.2,0.7,5.3,2.3,5.1,3.2c-0.2,0.8-4.2,0.1-10.3,0.9
	c-4,0.5-8.4,1.6-8.3,2.3c0.1,1,9.6,0.5,9.7,1.7c0.1,1.1-7.8,1.6-16.9,6.3c-7.1,3.7-12.7,8.7-12.2,9.5s6.8-2.5,7.1-1.9
	c0.6,1.1-19.3,12.8-18.4,14.6c0.5,0.9,6.8-1.8,7.2-1c0.7,1.4-17.7,11.3-17.1,12.6c0.5,0.9,11.1-3.8,11.8-2.5
	c0.4,0.7-2.6,2.7-8.1,7.8c-2,1.8-7.8,7.2-7.4,7.8c0.1,0.2,0.9,0,10.5-5.9c6.9-4.2,9.1-5.8,9.6-5.3c1.1,1.1-7.2,10.1-6.4,10.8
	c0.7,0.7,8.5-6.2,9.2-6.8c4.9-4.4,7.6-7.4,8.2-6.9c0.8,0.6-2.4,5.8-1.8,6.2c1.2,0.9,15.2-18.1,16.8-17c0.8,0.5-1.9,5.7-1.3,6.1
	c0.5,0.3,2.4-2.6,5.8-6.4c3.4-3.8,8-8.1,8.9-7.4c0.8,0.6-1.8,4.4-0.8,5.4c0.9,0.8,3.9-1.4,6.8-2.8c1-0.5,2.3-1,3.7-1.5
	c3-1,5.1,2.9,2.7,4.8c-2.2,1.8-4.7,4-7.2,6.4c-6.1,6-12,13.1-11.2,14c0.7,0.8,6.7-4.2,7.4-3.4c0.6,0.7-4,5.1-9.1,12.2
	c-5.3,7.4-8.9,14.7-8.2,15.1c0.7,0.5,5.3-6,6.2-5.3c0.7,0.5-1.2,4.5-4.6,13.6c-3.7,9.5-3.9,11.2-3.5,11.4c0.8,0.4,4.4-5.5,5.1-5.1
	c1.3,0.7-8.1,19.7-6.7,20.5c1,0.6,7.7-10.2,8.7-9.6c0.7,0.4-2,5.2-4,13.3c-1.1,4.2-2.1,10.1-1.4,10.3c0.4,0.1,1.1-1.1,5.8-11.2
	c3.8-8,4.9-10.7,5.6-10.5c1.5,0.3-0.4,11.6,0.8,11.8c0.9,0.2,2.8-5.4,4-9.6c1.8-6.4,2-10.8,2.9-10.8c1.1,0,1.7,5.9,2.5,5.8
	c0.7-0.1,0.8-4.3,1.3-10.1c0.2-2.3,1.2-13.9,2.4-14c0.9,0,1.1,6.9,2.4,6.9c0.9,0,1.5-3.5,3-8.6c1.8-6.6,4.9-15.3,6.2-15
	c1.1,0.2,0.5,6.6,1.6,6.7c0.6,0.1,1.4-2.1,2.3-4.4c0.5-1.2,2.1-4.1,5.2-9.9c1-1.8,2.4-4.2,4.4-7.1c1.6-2.4,5.3-1.1,5.1,1.8
	c-0.1,0.8-0.1,1.6-0.1,2.5c-1,20.1,1.1,35.7,2.2,42.8c2.6,16.2,6.5,28.1,9.2,35.9c7.2,21.1,19.3,42.8,20.8,45.4
	c8.1,14.6,19.8,33.8,36.2,55.6l0,0c0.3,0.4,0.6,0.8,0.9,1.2c1.8,2,4.5,3.3,7.5,3.3c5.4,0,9.9-4.2,9.9-9.4c0-2-0.7-3.9-1.8-5.5
	c-0.4-0.5-0.8-1-1.3-1.4c-11.6-12.7-20.6-24.5-27.3-34.2c-12.8-18.3-20.2-33-22.4-37.5c-2.6-5.1-8.1-16.5-12.9-30.3
	c-5-14.7-11.2-38.3-11.2-69.6c0-3.1,4.3-3.9,5.5-1c0,0.1,0,0.1,0.1,0.2c2.8,7.4,4.2,12.6,5.4,12.5c1.4-0.2,1-7.6,2.2-7.7
	c0.9-0.1,1.7,4.2,3.9,11.4c1.4,4.5,3.8,12.7,5.1,12.5c1.2-0.2,0.5-7.6,1.5-7.7c0.3,0,1,0.6,3.7,9.9c2.1,7.6,2.9,11.3,3.8,11.3
	c1.2-0.1,1.4-7.1,2.4-7.1c0.7,0,1.2,3.7,2.8,10c1.2,4.8,2.4,9.8,3.4,9.7c1.4-0.1,1-11.6,2.5-11.8c0.6-0.1,1.6,1.9,3.4,10.1
	c1.7,7.6,2.7,9.2,3.3,9.1c1.1-0.1,2-6,1.4-11.6c-0.6-5.8-2.6-9.4-2.1-9.7c1-0.5,7.8,12,8.9,11.5c0.8-0.4-1.3-6.4-2.5-9.6
	c-2.6-6.9-5.3-11.2-4.8-11.6c0.6-0.4,4.5,5.1,5.1,4.7s-2.3-6.2-5.4-11.4c-3.6-6-6.6-9.6-6.1-10c0.6-0.5,5.9,5.2,6.7,4.6
	c0.8-0.7-3.3-7.3-6.6-12c-4.6-6.5-8.4-10.5-7.9-11.1c0.6-0.7,6.3,4.3,7,3.6c0.7-0.7-2.7-5.4-5.7-8.9c-5.1-5.9-9.1-8.5-8.7-9.2
	c0.5-0.8,6.6,1.9,10.9,4.2c5.5,2.9,8.4,5.2,9.3,4.4c1.2-1.1-2.2-5.9-1.3-6.6c0.9-0.6,4.9,2.9,8.3,6.7c5.1,5.8,7.2,10.4,8.2,10
	c1.2-0.5-0.6-7.3,0.2-7.5c0.7-0.2,2.3,3.8,5.4,10.4c4.6,9.8,5.7,11.2,6.2,11.1c1.1-0.3-0.4-7.6,0.6-7.8c0.7-0.2,2.1,3.7,5.4,11.3
	c3.6,8.6,4.4,9.7,4.7,9.6c1.2-0.3-1.7-13.6-0.4-14c0.8-0.2,2.2,4.1,5.9,10.7c2.6,4.6,6.6,10.6,7.3,10.2c1.4-0.7-8.2-20.8-6.1-22
	c1.6-0.9,8.9,10.3,10.1,9.6c0.9-0.5-1.1-6.1-4-11.1c-3.9-6.7-8.4-10.6-7.9-11.2s5.4,3.7,6.2,2.9c1-0.9-3.9-8.9-10.8-15.6
	c-3-2.9-5.9-5.1-5.7-5.5c0.5-0.7,8.2,4.6,8.8,3.8c0.5-0.7-4.7-6.5-11.8-11.3c-10.2-6.9-19.9-8.9-19.6-9.9s10.3,1.4,10.7,0.2
	c0.2-0.8-3.9-2.9-8-4.3c-6.9-2.5-13.9-3.2-23.8-2.8c-13.3,0.6-22.3,2.9-22.7,1.7c-0.3-1.2,8.5-4.1,8.1-5.7c-0.3-1.3-7.1-0.4-7.1-0.9
	c-0.1-0.5,5.3-1.9,12.6-2.8c8.2-1,12.8-0.6,13.1-2c0.3-1.6-6.2-3.7-5.8-4.7c0.3-1.1,7.3-0.3,14,1.4c5.8,1.5,9.5,3.3,10,2.5
	c0.6-1-4.7-4.8-4.3-5.5c0.4-0.6,4.3,1.4,10.5,4.3c6.8,3.1,12.2,5.6,12.7,4.9c0.5-0.9-6-5.5-5.5-6.1c0.3-0.4,3.1,1,10.6,5.1
	c8.6,4.7,12.3,6.9,12.7,6.4c0.6-0.8-9.9-8.8-9-10.2c0.4-0.6,4.3,0.9,12.1,4.1c10.7,4.3,13,5.3,13.3,4.9
	C339.1,162.8,333.6,158.7,328.5,155.6z"/>
</svg>
