<?xml version="1.0" encoding="utf-8"?>
<!-- Generator: Adobe Illustrator 25.2.0, SVG Export Plug-In . SVG Version: 6.00 Build 0)  -->
<svg version="1.1" id="Layer_1" xmlns="http://www.w3.org/2000/svg" xmlns:xlink="http://www.w3.org/1999/xlink" x="0px" y="0px"
	 viewBox="0 0 450.2 500.8" style="enable-background:new 0 0 450.2 500.8;" xml:space="preserve">
<style type="text/css">
	.st0{fill:url(#SVGID_1_);}
	.st1{fill:url(#SVGID_2_);}
	.st2{fill:url(#SVGID_3_);}
	.st3{fill:url(#SVGID_4_);}
	.st4{fill:url(#SVGID_5_);}
	.st5{fill:url(#SVGID_6_);}
	.st6{fill:url(#SVGID_7_);}
	.st7{fill:url(#SVGID_8_);}
	.st8{fill:url(#SVGID_9_);}
	.st9{fill:url(#SVGID_10_);}
	.st10{fill:url(#SVGID_11_);}
	.st11{fill:url(#SVGID_12_);}
	.st12{fill:url(#SVGID_13_);}
	.st13{fill:url(#SVGID_14_);}
	.st14{fill:url(#SVGID_15_);}
	.st15{fill:url(#SVGID_16_);}
	.st16{fill:url(#SVGID_17_);}
	.st17{fill:url(#SVGID_18_);}
	.st18{fill:url(#SVGID_19_);}
	.st19{fill:url(#SVGID_20_);}
	.st20{fill:url(#SVGID_21_);}
	.st21{fill:url(#SVGID_22_);}
	.st22{fill:url(#SVGID_23_);}
	.st23{fill:url(#SVGID_24_);}
	.st24{fill:#0B0E11;}
	.st25{clip-path:url(#SVGID_26_);fill:url(#SVGID_27_);}
	.st26{fill:url(#SVGID_28_);}
	.st27{fill:url(#SVGID_29_);}
</style>
<g>
	
		<linearGradient id="SVGID_1_" gradientUnits="userSpaceOnUse" x1="96.2058" y1="38.121" x2="96.2058" y2="348.121" gradientTransform="matrix(1 0 0 -1 0 386.242)">
		<stop  offset="0.1" style="stop-color:#F85858"/>
		<stop  offset="0.5" style="stop-color:#F076AB"/>
		<stop  offset="0.9" style="stop-color:#A07DDE"/>
	</linearGradient>
	<path class="st0" d="M116,223.6H73.1c0.7,3.4,1.5,6.7,2.3,10h43.8C118,230.4,116.9,227,116,223.6z"/>
	
		<linearGradient id="SVGID_2_" gradientUnits="userSpaceOnUse" x1="354.0363" y1="38.121" x2="354.0363" y2="348.121" gradientTransform="matrix(1 0 0 -1 0 386.242)">
		<stop  offset="0.1" style="stop-color:#F85858"/>
		<stop  offset="0.5" style="stop-color:#F076AB"/>
		<stop  offset="0.9" style="stop-color:#A07DDE"/>
	</linearGradient>
	<path class="st1" d="M331,233.6h43.8c0.9-3.3,1.7-6.6,2.3-10h-42.9C333.3,227,332.2,230.4,331,233.6z"/>
	
		<linearGradient id="SVGID_3_" gradientUnits="userSpaceOnUse" x1="91.9538" y1="38.121" x2="91.9538" y2="348.121" gradientTransform="matrix(1 0 0 -1 0 386.242)">
		<stop  offset="0.1" style="stop-color:#F85858"/>
		<stop  offset="0.5" style="stop-color:#F076AB"/>
		<stop  offset="0.9" style="stop-color:#A07DDE"/>
	</linearGradient>
	<path class="st2" d="M113.6,172.9H71.4c-0.6,4.3-0.9,8.7-1.1,13.1H112C112.3,181.6,112.8,177.2,113.6,172.9z"/>
	
		<linearGradient id="SVGID_4_" gradientUnits="userSpaceOnUse" x1="358.2882" y1="38.121" x2="358.2882" y2="348.121" gradientTransform="matrix(1 0 0 -1 0 386.242)">
		<stop  offset="0.1" style="stop-color:#F85858"/>
		<stop  offset="0.5" style="stop-color:#F076AB"/>
		<stop  offset="0.9" style="stop-color:#A07DDE"/>
	</linearGradient>
	<path class="st3" d="M338.2,186H380c-0.2-4.4-0.6-8.8-1.1-13.1h-42.2C337.4,177.2,337.9,181.6,338.2,186z"/>
	
		<linearGradient id="SVGID_5_" gradientUnits="userSpaceOnUse" x1="359.1096" y1="38.121" x2="359.1096" y2="348.121" gradientTransform="matrix(1 0 0 -1 0 386.242)">
		<stop  offset="0.1" style="stop-color:#F85858"/>
		<stop  offset="0.5" style="stop-color:#F076AB"/>
		<stop  offset="0.9" style="stop-color:#A07DDE"/>
	</linearGradient>
	<path class="st4" d="M380.1,189.8h-41.7c0,1.1,0.1,2.2,0.1,3.3c0,2.9-0.1,5.8-0.3,8.6h41.8c0.2-2.8,0.2-5.7,0.2-8.6
		C380.1,192,380.1,190.9,380.1,189.8z"/>
	
		<linearGradient id="SVGID_6_" gradientUnits="userSpaceOnUse" x1="91.1325" y1="38.121" x2="91.1325" y2="348.121" gradientTransform="matrix(1 0 0 -1 0 386.242)">
		<stop  offset="0.1" style="stop-color:#F85858"/>
		<stop  offset="0.5" style="stop-color:#F076AB"/>
		<stop  offset="0.9" style="stop-color:#A07DDE"/>
	</linearGradient>
	<path class="st5" d="M111.8,193.1c0-1.1,0-2.2,0.1-3.3H70.2c0,1.1,0,2.2,0,3.3c0,2.9,0.1,5.8,0.2,8.6h41.8
		C111.9,198.9,111.8,196,111.8,193.1z"/>
	
		<linearGradient id="SVGID_7_" gradientUnits="userSpaceOnUse" x1="339.3841" y1="38.121" x2="339.3841" y2="348.121" gradientTransform="matrix(1 0 0 -1 0 386.242)">
		<stop  offset="0.1" style="stop-color:#F85858"/>
		<stop  offset="0.5" style="stop-color:#F076AB"/>
		<stop  offset="0.9" style="stop-color:#A07DDE"/>
	</linearGradient>
	<path class="st6" d="M312.4,265.3h49.9c1.4-2.7,2.8-5.4,4-8.2h-47.7C316.7,259.9,314.6,262.7,312.4,265.3z"/>
	
		<linearGradient id="SVGID_8_" gradientUnits="userSpaceOnUse" x1="110.8579" y1="38.121" x2="110.8579" y2="348.121" gradientTransform="matrix(1 0 0 -1 0 386.242)">
		<stop  offset="0.1" style="stop-color:#F85858"/>
		<stop  offset="0.5" style="stop-color:#F076AB"/>
		<stop  offset="0.9" style="stop-color:#A07DDE"/>
	</linearGradient>
	<path class="st7" d="M131.6,257.1H83.9c1.3,2.8,2.6,5.5,4,8.2h49.9C135.6,262.7,133.6,259.9,131.6,257.1z"/>
	
		<linearGradient id="SVGID_9_" gradientUnits="userSpaceOnUse" x1="92.5992" y1="38.121" x2="92.5992" y2="348.121" gradientTransform="matrix(1 0 0 -1 0 386.242)">
		<stop  offset="0.1" style="stop-color:#F85858"/>
		<stop  offset="0.5" style="stop-color:#F076AB"/>
		<stop  offset="0.9" style="stop-color:#A07DDE"/>
	</linearGradient>
	<path class="st8" d="M112.6,206.6H70.7c0.3,3.7,0.8,7.4,1.3,11h42.4C113.7,214,113.1,210.3,112.6,206.6z"/>
	
		<linearGradient id="SVGID_10_" gradientUnits="userSpaceOnUse" x1="357.6429" y1="38.121" x2="357.6429" y2="348.121" gradientTransform="matrix(1 0 0 -1 0 386.242)">
		<stop  offset="0.1" style="stop-color:#F85858"/>
		<stop  offset="0.5" style="stop-color:#F076AB"/>
		<stop  offset="0.9" style="stop-color:#A07DDE"/>
	</linearGradient>
	<path class="st9" d="M335.8,217.6h42.4c0.6-3.6,1-7.3,1.3-11h-41.9C337.2,210.3,336.6,214,335.8,217.6z"/>
	
		<linearGradient id="SVGID_11_" gradientUnits="userSpaceOnUse" x1="225.121" y1="38.121" x2="225.121" y2="348.121" gradientTransform="matrix(1 0 0 -1 0 386.242)">
		<stop  offset="0.1" style="stop-color:#F85858"/>
		<stop  offset="0.5" style="stop-color:#F076AB"/>
		<stop  offset="0.9" style="stop-color:#A07DDE"/>
	</linearGradient>
	<path class="st10" d="M127,313.1h196.2c1.9-1.6,3.8-3.2,5.6-4.8H121.4C123.3,310,125.1,311.6,127,313.1z"/>
	
		<linearGradient id="SVGID_12_" gradientUnits="userSpaceOnUse" x1="225.121" y1="38.121" x2="225.121" y2="348.121" gradientTransform="matrix(1 0 0 -1 0 386.242)">
		<stop  offset="0.1" style="stop-color:#F85858"/>
		<stop  offset="0.5" style="stop-color:#F076AB"/>
		<stop  offset="0.9" style="stop-color:#A07DDE"/>
	</linearGradient>
	<path class="st11" d="M150.5,329h149.2c2.4-1.3,4.7-2.7,7-4.1H143.5C145.8,326.3,148.2,327.7,150.5,329z"/>
	
		<linearGradient id="SVGID_13_" gradientUnits="userSpaceOnUse" x1="225.121" y1="38.121" x2="225.121" y2="348.121" gradientTransform="matrix(1 0 0 -1 0 386.242)">
		<stop  offset="0.1" style="stop-color:#F85858"/>
		<stop  offset="0.5" style="stop-color:#F076AB"/>
		<stop  offset="0.9" style="stop-color:#A07DDE"/>
	</linearGradient>
	<path class="st12" d="M225.1,348.1c15.2,0,29.9-2.2,43.8-6.3h-87.7C195.2,345.9,209.9,348.1,225.1,348.1z"/>
	
		<linearGradient id="SVGID_14_" gradientUnits="userSpaceOnUse" x1="142.77" y1="38.121" x2="142.77" y2="348.121" gradientTransform="matrix(1 0 0 -1 0 386.242)">
		<stop  offset="0.1" style="stop-color:#F85858"/>
		<stop  offset="0.5" style="stop-color:#F076AB"/>
		<stop  offset="0.9" style="stop-color:#A07DDE"/>
	</linearGradient>
	<path class="st13" d="M168.6,291.3h-63.4c1.6,2,3.3,4,5.1,5.9h70.1C176.3,295.5,172.4,293.5,168.6,291.3z"/>
	
		<linearGradient id="SVGID_15_" gradientUnits="userSpaceOnUse" x1="307.472" y1="38.121" x2="307.472" y2="348.121" gradientTransform="matrix(1 0 0 -1 0 386.242)">
		<stop  offset="0.1" style="stop-color:#F85858"/>
		<stop  offset="0.5" style="stop-color:#F076AB"/>
		<stop  offset="0.9" style="stop-color:#A07DDE"/>
	</linearGradient>
	<path class="st14" d="M269.9,297.2H340c1.7-1.9,3.4-3.9,5.1-5.9h-63.4C277.9,293.5,273.9,295.5,269.9,297.2z"/>
	
		<linearGradient id="SVGID_16_" gradientUnits="userSpaceOnUse" x1="326.7916" y1="38.121" x2="326.7916" y2="348.121" gradientTransform="matrix(1 0 0 -1 0 386.242)">
		<stop  offset="0.1" style="stop-color:#F85858"/>
		<stop  offset="0.5" style="stop-color:#F076AB"/>
		<stop  offset="0.9" style="stop-color:#A07DDE"/>
	</linearGradient>
	<path class="st15" d="M296.4,281.2h56.3c1.6-2.3,3.1-4.6,4.6-7h-53C301.7,276.7,299.1,279,296.4,281.2z"/>
	
		<linearGradient id="SVGID_17_" gradientUnits="userSpaceOnUse" x1="123.4505" y1="38.121" x2="123.4505" y2="348.121" gradientTransform="matrix(1 0 0 -1 0 386.242)">
		<stop  offset="0.1" style="stop-color:#F85858"/>
		<stop  offset="0.5" style="stop-color:#F076AB"/>
		<stop  offset="0.9" style="stop-color:#A07DDE"/>
	</linearGradient>
	<path class="st16" d="M146,274.2H93c1.5,2.4,3,4.7,4.6,7h56.3C151.2,279,148.5,276.7,146,274.2z"/>
	
		<linearGradient id="SVGID_18_" gradientUnits="userSpaceOnUse" x1="102.1553" y1="38.121" x2="102.1553" y2="348.121" gradientTransform="matrix(1 0 0 -1 0 386.242)">
		<stop  offset="0.1" style="stop-color:#F85858"/>
		<stop  offset="0.5" style="stop-color:#F076AB"/>
		<stop  offset="0.9" style="stop-color:#A07DDE"/>
	</linearGradient>
	<path class="st17" d="M122.4,240.9H77.6c0.9,2.8,1.9,5.6,2.9,8.3h46.1C125.1,246.5,123.7,243.8,122.4,240.9z"/>
	
		<linearGradient id="SVGID_19_" gradientUnits="userSpaceOnUse" x1="348.0868" y1="38.121" x2="348.0868" y2="348.121" gradientTransform="matrix(1 0 0 -1 0 386.242)">
		<stop  offset="0.1" style="stop-color:#F85858"/>
		<stop  offset="0.5" style="stop-color:#F076AB"/>
		<stop  offset="0.9" style="stop-color:#A07DDE"/>
	</linearGradient>
	<path class="st18" d="M323.6,249.2h46.1c1.1-2.7,2-5.5,2.9-8.3h-44.7C326.5,243.8,325.1,246.5,323.6,249.2z"/>
	
		<linearGradient id="SVGID_20_" gradientUnits="userSpaceOnUse" x1="349.9731" y1="38.121" x2="349.9731" y2="348.121" gradientTransform="matrix(1 0 0 -1 0 386.242)">
		<stop  offset="0.1" style="stop-color:#F85858"/>
		<stop  offset="0.5" style="stop-color:#F076AB"/>
		<stop  offset="0.9" style="stop-color:#A07DDE"/>
	</linearGradient>
	<path class="st19" d="M331.6,154.2h43.6c-1.3-5.1-2.9-10.2-4.7-15.1h-45.7C327.4,144,329.7,149,331.6,154.2z"/>
	
		<linearGradient id="SVGID_21_" gradientUnits="userSpaceOnUse" x1="100.2689" y1="38.121" x2="100.2689" y2="348.121" gradientTransform="matrix(1 0 0 -1 0 386.242)">
		<stop  offset="0.1" style="stop-color:#F85858"/>
		<stop  offset="0.5" style="stop-color:#F076AB"/>
		<stop  offset="0.9" style="stop-color:#A07DDE"/>
	</linearGradient>
	<path class="st20" d="M125.5,139.1H79.8c-1.8,4.9-3.4,10-4.7,15.1h43.6C120.6,149,122.9,144,125.5,139.1z"/>
	
		<linearGradient id="SVGID_22_" gradientUnits="userSpaceOnUse" x1="95.0027" y1="38.121" x2="95.0027" y2="348.121" gradientTransform="matrix(1 0 0 -1 0 386.242)">
		<stop  offset="0.1" style="stop-color:#F85858"/>
		<stop  offset="0.5" style="stop-color:#F076AB"/>
		<stop  offset="0.9" style="stop-color:#A07DDE"/>
	</linearGradient>
	<path class="st21" d="M118.2,155.6H74.7c-1.2,4.8-2.1,9.6-2.9,14.5h42.3C115.2,165.2,116.5,160.3,118.2,155.6z"/>
	
		<linearGradient id="SVGID_23_" gradientUnits="userSpaceOnUse" x1="355.2393" y1="38.121" x2="355.2393" y2="348.121" gradientTransform="matrix(1 0 0 -1 0 386.242)">
		<stop  offset="0.1" style="stop-color:#F85858"/>
		<stop  offset="0.5" style="stop-color:#F076AB"/>
		<stop  offset="0.9" style="stop-color:#A07DDE"/>
	</linearGradient>
	<path class="st22" d="M336.1,170.1h42.3c-0.7-4.9-1.7-9.7-2.9-14.5h-43.5C333.7,160.3,335.1,165.2,336.1,170.1z"/>
	
		<linearGradient id="SVGID_24_" gradientUnits="userSpaceOnUse" x1="225.121" y1="38.121" x2="225.121" y2="348.121" gradientTransform="matrix(1 0 0 -1 0 386.242)">
		<stop  offset="0.1" style="stop-color:#F85858"/>
		<stop  offset="0.5" style="stop-color:#F076AB"/>
		<stop  offset="0.9" style="stop-color:#A07DDE"/>
	</linearGradient>
	<path class="st23" d="M225.1,79.8c42.6,0,79.7,23.5,99.1,58.3h45.9c-22.2-58.5-78.7-100-144.9-100s-122.8,41.5-144.9,100h45.9
		C145.4,103.4,182.5,79.8,225.1,79.8z"/>
</g>
<path class="st24" d="M347.5,191.3c-0.3,0.4-2.6-0.6-13.3-4.9c-2.8-1.2-5.1-2.1-6.9-2.8c-3.2-1.2-4.9-1.7-5.2-1.3
	c-0.4,0.5,1.1,2.1,2.9,3.9c2.8,2.7,6.5,5.8,6.1,6.3c-0.4,0.5-4.1-1.7-12.7-6.4c-7.5-4.1-10.3-5.5-10.6-5.1c0,0,0,0,0,0
	c-0.1,0.3,1,1.4,2.4,2.5c0.9,0.8,1.9,1.7,2.5,2.3c0,0,0.1,0.1,0.1,0.1c0.4,0.5,0.7,0.9,0.6,1.1c-0.3,0.5-2.9-0.5-6.5-2.1
	c-1.8-0.8-3.9-1.8-6.2-2.8c-2.6-1.2-4.8-2.2-6.4-3c-2.4-1.1-3.8-1.6-4.1-1.3c-0.4,0.6,3.8,3.7,4.3,5.1c0.1,0.2,0.1,0.3,0,0.4
	c-0.5,0.8-4.2-1-10-2.5c-1.1-0.3-2.2-0.5-3.3-0.8c-2.7-0.6-5.3-1-7.2-1.1c-2-0.1-3.4,0-3.5,0.5c-0.4,1,6.1,3.1,5.8,4.7
	c-0.3,1.4-4.9,1-13.1,2c-7.3,0.9-12.7,2.3-12.6,2.8c0,0.5,6.8-0.4,7.1,0.9c0.1,0.3-0.2,0.6-0.6,1c-2,1.6-7.7,3.7-7.5,4.7
	c0.4,1.2,9.4-1.1,22.7-1.7c4.9-0.2,9-0.1,12.9,0.3c3.9,0.4,7.5,1.2,11,2.5c4.1,1.4,8.2,3.5,8,4.3c-0.4,1.2-10.4-1.2-10.7-0.2
	s9.4,3,19.6,9.9c7.1,4.8,12.3,10.6,11.8,11.3c-0.6,0.8-8.3-4.5-8.8-3.8c-0.2,0.4,2.7,2.6,5.7,5.5c6.9,6.7,11.8,14.7,10.8,15.6
	c-0.8,0.8-5.7-3.5-6.2-2.9c-0.5,0.6,4,4.5,7.9,11.2c2.9,5,4.9,10.6,4,11.1c-1.2,0.7-8.5-10.5-10.1-9.6c-2.1,1.2,7.5,21.3,6.1,22
	c-0.7,0.4-4.7-5.6-7.3-10.2c-2.4-4.3-3.8-7.6-4.8-9.3c-0.5-1-0.9-1.5-1.2-1.4c-0.1,0-0.1,0.1-0.2,0.2c-0.7,1.8,1.7,13.5,0.6,13.8
	c-0.3,0.1-1.1-1-4.7-9.6c-1.4-3.2-2.5-5.8-3.2-7.6c0,0,0,0,0,0c-1.1-2.5-1.7-3.8-2.1-3.7c-1,0.2,0.5,7.5-0.6,7.8
	c-0.1,0-0.2,0-0.3-0.1c0,0,0,0,0,0c-0.5-0.4-1.6-2-4.2-7.3c-0.5-1.1-1.1-2.3-1.7-3.7c-3.1-6.6-4.7-10.6-5.4-10.4
	c-0.8,0.2,1,7-0.2,7.5c-1,0.4-3.1-4.2-8.2-10c-3.4-3.8-7.4-7.3-8.3-6.7c-0.9,0.7,2.5,5.5,1.3,6.6c-0.4,0.3-1.1,0.1-2.1-0.4
	c-1.6-0.8-3.9-2.3-7.2-4c-0.9-0.5-1.9-1-2.9-1.5c-3.4-1.7-7-3.1-7.8-2.8c-0.1,0-0.1,0-0.1,0.1c-0.4,0.7,3.6,3.3,8.7,9.2
	c3,3.5,6.4,8.2,5.7,8.9s-6.4-4.3-7-3.6c-0.5,0.6,3.3,4.6,7.9,11.1c3.3,4.7,7.4,11.3,6.6,12c-0.8,0.6-6.1-5.1-6.7-4.6
	c-0.5,0.4,2.5,4,6.1,10c3.1,5.2,6,11,5.4,11.4c-0.6,0.4-4.5-5.1-5.1-4.7c-0.5,0.4,2.2,4.7,4.8,11.6c1.2,3.2,3.3,9.2,2.5,9.6
	c-1.1,0.5-7.9-12-8.9-11.5c-0.5,0.3,1.5,3.9,2.1,9.7c0.6,5.6-0.3,11.5-1.4,11.6c-0.6,0.1-1.6-1.5-3.3-9.1
	c-1.8-8.2-2.8-10.2-3.4-10.1c-1.5,0.2-1.1,11.7-2.5,11.8c-0.6,0.1-1.4-2-2.1-4.8c-0.4-1.5-0.8-3.2-1.2-4.9c-1.6-6.3-2.1-10-2.8-10
	c-0.6,0-0.9,2.4-1.3,4.4c0,0,0,0,0,0c-0.3,1.4-0.6,2.7-1.1,2.7c-0.6,0-1.1-1.5-1.9-4.5c0,0,0,0,0,0c-0.5-1.8-1.1-4-1.9-6.8
	c-2.7-9.3-3.4-9.9-3.7-9.9c-0.9,0.1-0.5,5.4-1.1,7.1c-0.1,0.3-0.2,0.5-0.4,0.5c-0.2,0-0.5-0.2-0.7-0.5c-1.3-1.9-3.2-8.2-4.4-12
	c-2.2-7.2-3-11.5-3.9-11.4c-1.2,0.1-0.8,7.5-2.2,7.7c-1.2,0.1-2.6-5.1-5.4-12.5c-0.1-0.1-0.1-0.1-0.1-0.2c-1.2-2.9-5.5-2.1-5.5,1
	c0,1.5,0,3.1,0,4.6c0.6,29,6.4,51,11.2,65c4.8,13.8,10.3,25.2,12.9,30.3c2.2,4.5,9.6,19.2,22.4,37.5c3.8,5.6,8.4,11.8,13.8,18.5
	c0.3,0.4,0.6,0.7,0.9,1.1c1,1.5,1.5,3.2,1.5,5c0,4.9-4.2,8.8-9.3,8.8c-1.9,0-3.6-0.5-5-1.4c-11.2-16-19.7-30.2-26-41.5
	c-1.5-2.6-13.6-24.3-20.8-45.4c-2.7-7.8-6.6-19.7-9.2-35.9c-1.1-7.1-3.2-22.7-2.2-42.8c0-0.9,0-1.7,0.1-2.5c0.2-2.9-3.5-4.2-5.1-1.8
	c-1.9,2.7-3.2,5-4.2,6.7c-0.1,0.1-0.2,0.3-0.2,0.4c-3.1,5.8-4.7,8.7-5.2,9.9c-0.9,2.3-1.7,4.5-2.3,4.4c-1.1-0.1-0.5-6.5-1.6-6.7
	c-1.3-0.3-4.4,8.4-6.2,15c-1.5,5.1-2.1,8.6-3,8.6c-1.3,0-1.5-6.9-2.4-6.9c-1.2,0.1-2.2,11.7-2.4,14c-0.5,5.8-0.6,10-1.3,10.1
	c-0.8,0.1-1.4-5.8-2.5-5.8c-0.9,0-1.1,4.4-2.9,10.8c-1.2,4.2-3.1,9.8-4,9.6c-1.2-0.2,0.7-11.5-0.8-11.8c-0.7-0.2-1.8,2.5-5.6,10.5
	c-4.7,10.1-5.4,11.3-5.8,11.2c-0.7-0.2,0.3-6.1,1.4-10.3c1.7-6.9,3.9-11.5,4.1-12.9c0-0.1,0-0.2,0-0.2c0,0,0,0,0,0
	c0-0.1,0-0.2-0.1-0.2c-1-0.6-7.7,10.2-8.7,9.6c-0.1,0-0.1-0.1-0.1-0.2c-0.5-2.2,8.1-19.6,6.8-20.3c-0.6-0.4-3.6,4.4-4.8,5
	c-0.1,0.1-0.2,0.1-0.3,0.1c-0.2-0.1-0.3-0.7,0.5-3c0.5-1.7,1.5-4.3,3-8.4c3.4-9.1,5.3-13.1,4.6-13.6c-0.9-0.7-5.5,5.8-6.2,5.3
	c-0.7-0.4,2.9-7.7,8.2-15.1c5.1-7.1,9.7-11.5,9.1-12.2c-0.7-0.8-6.7,4.2-7.4,3.4c-0.8-0.9,5.1-8,11.2-14c2.5-2.4,5-4.6,7.2-6.4
	c2.4-1.9,0.3-5.8-2.7-4.8c-1.4,0.5-2.7,1-3.7,1.5c-2.5,1.2-5,2.9-6.2,3c-0.2,0-0.4,0-0.6-0.2c-1-1,1.6-4.8,0.8-5.4
	c-0.9-0.7-5.5,3.6-8.9,7.4s-5.3,6.7-5.8,6.4c-0.6-0.4,2.1-5.6,1.3-6.1c-1.6-1.1-15.6,17.9-16.8,17c-0.6-0.4,2.6-5.6,1.8-6.2
	c-0.6-0.5-3.3,2.5-8.2,6.9c-0.7,0.6-8.5,7.5-9.2,6.8c-0.8-0.7,7.5-9.7,6.4-10.8c-0.5-0.5-2.7,1.1-9.6,5.3
	c-9.6,5.9-10.4,6.1-10.5,5.9c-0.4-0.6,5.4-6,7.4-7.8c3.6-3.4,6.2-5.4,7.4-6.6c0.6-0.6,0.8-1,0.8-1.2c0,0,0,0,0,0
	c-0.2-0.5-1.7-0.2-3.6,0.4c-3.4,1-7.9,2.7-8.2,2.1c-0.6-1.3,17.8-11.2,17.1-12.6c-0.4-0.8-6.7,1.9-7.2,1c-0.9-1.8,19-13.5,18.4-14.6
	c-0.3-0.6-6.6,2.7-7.1,1.9s5.1-5.8,12.2-9.5c9.1-4.7,17-5.2,16.9-6.3c-0.1-1.2-9.6-0.7-9.7-1.7c0-0.1,0.1-0.3,0.4-0.4
	c0.5-0.3,1.6-0.7,2.9-1c1.5-0.4,3.3-0.7,5-0.9c6.1-0.8,10.1-0.1,10.3-0.9c0.2-0.9-5.3-2.5-5.1-3.2c0.2-0.8,6.9,0.5,7.1-0.1
	c0.1-0.4-2.7-1.8-7-3c0,0,0,0,0,0c-1.9-0.6-4.1-1.1-6.4-1.6c-5-0.9-9.1-1-9.1-1.7c0-0.4,1-0.7,2.1-1.1h0c1.5-0.4,3.2-0.8,3.2-1.2
	c-0.1-0.7-4-1.1-8.1-0.8c-0.9,0.1-1.7,0.2-2.5,0.3c-4.4,0.6-7.2,1.8-7.5,1c-0.4-0.7,2.5-2.7,2.7-3.4c0-0.1,0-0.1,0-0.2
	c-0.2-0.3-1.3,0-2.9,0.7c-1.9,0.8-4.6,2.1-7.2,3.5c-4.5,2.6-6.9,4.5-7.2,4.2c-0.5-0.6,5.7-6.4,7.7-9.1c0.5-0.6,0.7-1.1,0.5-1.3
	c-0.5-0.6-4.4,1.7-10.4,5.3c-0.1,0.1-0.2,0.1-0.3,0.2c-7.5,4.5-10.1,6.5-10.5,6.1c-0.5-0.6,3.3-5.4,8.3-9.3c0.3-0.2,0.6-0.5,0.9-0.7
	c4.7-3.4,8.6-4.9,8.4-5.5c-0.2-0.6-4.5,0.5-6.8,1.1c-1.4,0.4-2.5,0.7-3.4,1c-1.7,0.5-2.4,0.8-2.6,0.6c-0.2-0.4,2-2.3,5.4-4.3
	c0,0,0,0,0,0c1.2-0.7,2.6-1.4,4-2c7.8-3.5,14.4-3.4,14.4-4.4c0-0.7-2.9-1-4.8-1.4c-1-0.2-1.7-0.3-1.7-0.5c0-0.1,0-0.1,0.2-0.2
	c1.1-0.7,8.2-1.8,16.3-0.6c0.5,0.1,1.1,0.2,1.6,0.3c2.2,0.4,4.3,1,6,1.5c3.9,1.2,6.3,2.3,6.5,1.9c0.3-0.6-3.9-3.1-6-4.7
	c-0.8-0.6-1.2-1-1.1-1.2c0.2-0.6,5.5,1.6,16.1,6.1c1.3,0.6,2.4,1,3.4,1.5c1.9,0.9,3.3,1.7,4.8,2.9c3.8,3,5.7,6.3,6.1,6.1
	c0.3-0.2-0.7-2-1.8-4c-1.4-2.7-3-5.8-2.3-6.3c0.9-0.7,5.4,3.8,13.1,10.6c1.9,1.7,3.7,3.3,5.4,4.7c1.7,1.4,3.2,2.7,4.5,3.9
	c1.5,1.3,3.8,0.7,4.5-1.1c0.3-0.9,0.7-1.9,1.1-2.9c1.4-3.3,2.1-4.3,2.3-4.7c1.9-3,4.3-4.4,5.5-5.3c9.6-7.2,15.1-11.3,19.4-13.6
	c0.8-0.4,1.6-0.8,2.3-1.1c7.7-3.4,15.5-4.6,15.8-3.7c0.2,0.4-1.5,1.4-3.3,2.4c-2.2,1.2-4.6,2.6-4.4,3.2c0.5,1,8.7-2.2,20.5-2.6
	c0.8,0,1.5,0,2.4,0c7.2,0,14.1,1.1,14.1,2.1c0,1.1-9,1.8-8.9,2.6c0.1,0.7,6.3,0.3,14.1,1.6c9.2,1.5,17.2,4.9,17,5.9
	s-9.2-0.5-9.3,0.3c-0.1,0.6,5.2,1.7,12.6,4.5c4.6,1.7,11.4,4.6,11.2,5.4c-0.3,1.2-15-2.7-15.4-1.5c-0.2,0.7,5.2,2.4,12.7,7
	C342.8,185.7,348.2,189.8,347.5,191.3z"/>
<g>
	<defs>
		<path id="SVGID_25_" d="M80.5,477.5v-18.6c-2.5,2.5-5.2,4.5-8,5.8c-2.8,1.3-5.8,2-9.2,2c-4.1,0-7.8-1.1-11.2-3.2
			c-3.4-2.2-6-5.3-7.9-9.3c-1.9-4-2.9-8.8-2.9-14.3c0-5.6,1-10.4,2.9-14.4c1.9-4,4.6-7.1,8.1-9.2c3.4-2.1,7.3-3.1,11.4-3.1
			c3.5,0,6.7,0.7,9.5,2.2c2.8,1.5,5.2,3.7,7.2,6.7v-1.6c0-2.4,0.6-4.3,1.7-5.5c1.2-1.3,2.7-1.9,4.5-1.9c1.8,0,3.3,0.6,4.5,1.9
			c1.2,1.2,1.7,3.1,1.7,5.5v57.1c0,5.9-2.1,8.8-6.2,8.8c-2.6,0-4.3-0.8-5.1-2.4C80.9,482.4,80.5,480.2,80.5,477.5z M54.6,439.8
			c0,3.5,0.6,6.6,1.7,9.2c1.1,2.6,2.7,4.5,4.5,5.7c1.9,1.2,3.9,1.9,6,1.9c2.4,0,4.5-0.6,6.5-1.9c2-1.2,3.5-3.1,4.7-5.7
			c1.2-2.5,1.8-5.7,1.8-9.4c0-2.6-0.3-5-1-7.2c-0.7-2.1-1.6-3.9-2.8-5.3c-1.2-1.4-2.6-2.5-4.1-3.1c-1.5-0.7-3.2-1-4.9-1
			c-3.5,0-6.5,1.5-8.9,4.4C55.8,430.2,54.6,434.4,54.6,439.8z M140.6,459.3v-1.7c-1.6,2-3.2,3.7-5,5c-1.7,1.4-3.6,2.4-5.7,3
			c-2.1,0.7-4.4,1-7.1,1c-3.2,0-6.1-0.7-8.6-2c-2.5-1.3-4.5-3.1-5.9-5.5c-1.6-2.8-2.5-6.8-2.5-12.1v-26.2c0-2.6,0.6-4.6,1.8-5.9
			c1.2-1.3,2.8-2,4.7-2c2,0,3.6,0.7,4.8,2c1.2,1.3,1.8,3.3,1.8,5.9V442c0,3.1,0.3,5.6,0.8,7.7c0.5,2.1,1.4,3.7,2.8,4.9
			c1.3,1.2,3.2,1.8,5.4,1.8c2.2,0,4.3-0.7,6.3-2c2-1.3,3.4-3,4.3-5.2c0.7-1.9,1.1-6,1.1-12.3v-16.1c0-2.6,0.6-4.6,1.8-5.9
			c1.2-1.3,2.8-2,4.8-2c2,0,3.5,0.7,4.7,2c1.2,1.3,1.8,3.3,1.8,5.9v38.3c0,2.5-0.6,4.4-1.7,5.7c-1.1,1.3-2.6,1.9-4.4,1.9
			c-1.8,0-3.3-0.7-4.5-2C141.2,463.5,140.6,461.6,140.6,459.3z M172.8,406.9c-1.8,0-3.4-0.6-4.7-1.7c-1.3-1.1-2-2.7-2-4.8
			c0-1.9,0.7-3.4,2-4.6c1.3-1.2,2.9-1.8,4.7-1.8c1.7,0,3.2,0.5,4.5,1.6c1.3,1.1,2,2.7,2,4.8c0,2-0.6,3.6-1.9,4.8
			C176.1,406.3,174.6,406.9,172.8,406.9z M179.4,420.5v38.2c0,2.6-0.6,4.6-1.9,6c-1.3,1.4-2.9,2-4.8,2c-1.9,0-3.5-0.7-4.7-2.1
			s-1.8-3.4-1.8-6v-37.8c0-2.6,0.6-4.6,1.8-5.9c1.2-1.3,2.8-2,4.7-2c1.9,0,3.5,0.7,4.8,2C178.7,416.3,179.4,418.1,179.4,420.5z
			 M221.6,461.3l-9.6-14.1l-9.8,14.1c-1.4,2-2.6,3.4-3.6,4.2c-1,0.8-2.2,1.3-3.8,1.3c-1.7,0-3.1-0.5-4.3-1.6c-1.2-1-1.8-2.2-1.8-3.6
			c0-1.4,0.9-3.4,2.7-6l12-17.1l-10.6-14.3c-1.8-2.4-2.8-4.4-2.8-6.1c0-1.4,0.5-2.5,1.6-3.5c1.1-1,2.5-1.5,4.3-1.5
			c1.5,0,2.8,0.4,3.8,1.3c1,0.9,2.2,2.2,3.6,4.1l8.6,11.7l8.3-11.7c1.4-1.9,2.6-3.3,3.6-4.2c1-0.8,2.3-1.3,3.8-1.3
			c1.7,0,3.2,0.5,4.3,1.5s1.7,2.2,1.7,3.6c0,1-0.2,2-0.7,2.9c-0.5,0.9-1.2,2-2.2,3.3l-10.6,14.3l12,17.1c1.9,2.7,2.8,4.7,2.8,6
			c0,1.4-0.6,2.6-1.7,3.6c-1.2,1-2.6,1.5-4.3,1.5c-1.5,0-2.8-0.4-3.8-1.3C224.2,464.5,223,463.2,221.6,461.3z M292.8,439.9
			c0,3.9-0.6,7.6-1.8,10.9c-1.2,3.3-3,6.2-5.3,8.6c-2.3,2.4-5.1,4.2-8.3,5.5c-3.2,1.3-6.9,1.9-10.9,1.9c-4,0-7.6-0.6-10.8-1.9
			c-3.2-1.3-6-3.1-8.3-5.5c-2.3-2.4-4.1-5.2-5.3-8.5s-1.8-6.9-1.8-10.9c0-4,0.6-7.7,1.8-11c1.2-3.3,3-6.2,5.3-8.5
			c2.3-2.4,5.1-4.2,8.3-5.4c3.3-1.3,6.9-1.9,10.8-1.9c4,0,7.6,0.6,10.9,1.9c3.3,1.3,6,3.1,8.4,5.5c2.3,2.4,4.1,5.2,5.3,8.5
			S292.8,435.9,292.8,439.9z M279.5,439.9c0-5.4-1.2-9.6-3.6-12.6c-2.4-3-5.6-4.5-9.6-4.5c-2.6,0-4.9,0.7-6.8,2
			c-2,1.3-3.5,3.3-4.5,5.9c-1.1,2.6-1.6,5.7-1.6,9.1c0,3.5,0.5,6.5,1.6,9c1,2.6,2.5,4.6,4.5,5.9c2,1.4,4.3,2.1,6.9,2.1
			c4,0,7.2-1.5,9.6-4.5C278.3,449.4,279.5,445.2,279.5,439.9z M303.9,414.2h1.5v-7.9c0-2.1,0.1-3.8,0.2-5c0.1-1.2,0.4-2.3,0.9-3.1
			c0.5-0.9,1.3-1.6,2.2-2.2c1-0.6,2-0.8,3.2-0.8c1.7,0,3.2,0.6,4.5,1.9c0.9,0.8,1.5,1.9,1.7,3.1s0.4,2.9,0.4,5.2v9h4.8
			c1.9,0,3.3,0.4,4.3,1.3c1,0.9,1.5,2,1.5,3.4c0,1.8-0.7,3-2.1,3.7s-3.4,1.1-6,1.1h-2.5V448c0,2.1,0.1,3.7,0.2,4.8
			c0.1,1.1,0.5,2,1.2,2.7c0.6,0.7,1.7,1,3.1,1c0.8,0,1.8-0.1,3.1-0.4s2.4-0.4,3.1-0.4c1.1,0,2,0.4,2.9,1.3c0.9,0.9,1.3,1.9,1.3,3.2
			c0,2.1-1.2,3.8-3.5,4.9c-2.3,1.1-5.7,1.7-10,1.7c-4.1,0-7.3-0.7-9.4-2.1c-2.1-1.4-3.5-3.3-4.2-5.8c-0.7-2.5-1-5.7-1-9.8v-25.4
			h-1.7c-1.9,0-3.4-0.5-4.4-1.4c-1-0.9-1.5-2-1.5-3.4s0.5-2.5,1.6-3.4C300.4,414.6,301.9,414.2,303.9,414.2z M345,406.9
			c-1.8,0-3.4-0.6-4.7-1.7c-1.3-1.1-2-2.7-2-4.8c0-1.9,0.7-3.4,2-4.6c1.3-1.2,2.9-1.8,4.7-1.8c1.7,0,3.2,0.5,4.5,1.6
			c1.3,1.1,2,2.7,2,4.8c0,2-0.6,3.6-1.9,4.8C348.3,406.3,346.7,406.9,345,406.9z M351.5,420.5v38.2c0,2.6-0.6,4.6-1.9,6
			c-1.3,1.4-2.9,2-4.8,2c-1.9,0-3.5-0.7-4.7-2.1s-1.8-3.4-1.8-6v-37.8c0-2.6,0.6-4.6,1.8-5.9c1.2-1.3,2.8-2,4.7-2
			c1.9,0,3.5,0.7,4.8,2C350.9,416.3,351.5,418.1,351.5,420.5z M412.5,450.4c0,1.6-0.5,3.4-1.5,5.3c-1,1.9-2.5,3.7-4.5,5.3
			c-2,1.7-4.6,3.1-7.6,4.1s-6.5,1.5-10.4,1.5c-8.2,0-14.5-2.4-19.1-7.1c-4.6-4.8-6.9-11.1-6.9-19.1c0-5.4,1-10.2,3.1-14.4
			c2.1-4.2,5.1-7.4,9.1-9.7s8.7-3.4,14.2-3.4c3.4,0,6.6,0.5,9.4,1.5s5.3,2.3,7.3,3.9c2,1.6,3.5,3.3,4.5,5.1c1,1.8,1.6,3.5,1.6,5
			c0,1.6-0.6,2.9-1.8,4c-1.2,1.1-2.6,1.6-4.3,1.6c-1.1,0-2-0.3-2.7-0.8c-0.7-0.6-1.5-1.5-2.4-2.7c-1.6-2.5-3.3-4.3-5.1-5.5
			c-1.8-1.2-4-1.8-6.7-1.8c-3.9,0-7.1,1.5-9.4,4.6c-2.4,3-3.6,7.2-3.6,12.5c0,2.5,0.3,4.8,0.9,6.8c0.6,2.1,1.5,3.9,2.7,5.3
			c1.2,1.5,2.6,2.6,4.2,3.3s3.5,1.1,5.4,1.1c2.6,0,4.9-0.6,6.8-1.8c1.9-1.2,3.6-3.1,5-5.6c0.8-1.5,1.7-2.6,2.6-3.5
			c0.9-0.8,2.1-1.3,3.4-1.3c1.6,0,3,0.6,4,1.8C412,447.7,412.5,449,412.5,450.4z"/>
	</defs>
	<clipPath id="SVGID_26_">
		<use xlink:href="#SVGID_25_"  style="overflow:visible;"/>
	</clipPath>
	<linearGradient id="SVGID_27_" gradientUnits="userSpaceOnUse" x1="41.3617" y1="438.5253" x2="412.5521" y2="438.5253">
		<stop  offset="0" style="stop-color:#F65B68"/>
		<stop  offset="0.2" style="stop-color:#F076AB"/>
		<stop  offset="0.4" style="stop-color:#A07DDE"/>
		<stop  offset="0.6" style="stop-color:#008CE3"/>
		<stop  offset="0.8" style="stop-color:#2AC68E"/>
		<stop  offset="1" style="stop-color:#3DDDD8"/>
	</linearGradient>
	<rect x="41.4" y="390.7" class="st25" width="371.2" height="95.6"/>
</g>
<linearGradient id="SVGID_28_" gradientUnits="userSpaceOnUse" x1="178.2425" y1="72.5222" x2="307.9675" y2="202.2472" gradientTransform="matrix(1 0 0 -1 0 386.242)">
	<stop  offset="0" style="stop-color:#2AC68E"/>
	<stop  offset="0.5" style="stop-color:#3DDDD8"/>
	<stop  offset="1" style="stop-color:#008CE3"/>
</linearGradient>
<path class="st26" d="M324,168.5c-7.5-4.6-12.9-6.3-12.7-7c0.4-1.2,15.1,2.7,15.4,1.5c0.2-0.8-6.6-3.7-11.2-5.4
	c-7.4-2.8-12.7-3.9-12.6-4.5c0.1-0.8,9.1,0.7,9.3-0.3c0.2-1-7.8-4.4-17-5.9c-7.8-1.3-14-0.9-14.1-1.6c-0.1-0.8,8.9-1.5,8.9-2.6
	c0-1-6.9-2.1-14.1-2.1c-13.1,0-22.4,3.7-22.9,2.6c-0.4-1.1,8.1-4.7,7.7-5.6c-0.3-0.9-8.1,0.3-15.8,3.7c-4.6,1.9-10.3,6.2-21.7,14.7
	c-1.2,0.9-3.6,2.3-5.5,5.3c-0.2,0.4-0.9,1.4-2.3,4.7c-0.4,1-0.8,2-1.1,2.9c-0.7,1.8-3,2.4-4.5,1.1c-2.7-2.3-6.1-5.2-9.9-8.6
	c-7.7-6.8-12.2-11.3-13.1-10.6c-1.1,0.9,4.7,9.9,4.1,10.3c-0.4,0.2-2.3-3.1-6.1-6.1c-2.3-1.8-4.2-2.7-8.2-4.4
	c-10.6-4.5-15.9-6.7-16.1-6.1c-0.4,0.8,7.5,5.1,7.1,5.9c-0.3,0.7-5.3-2-12.5-3.4c-9.6-1.8-18.1-0.2-18.1,0.5c0,0.6,6.5,0.9,6.5,1.9
	s-6.6,0.9-14.4,4.4c-5.5,2.4-9.7,5.8-9.4,6.3c0.2,0.3,1.9-0.5,6-1.6c2.3-0.6,6.6-1.7,6.8-1.1c0.2,0.6-4.2,2.3-9.3,6.2
	c-5,3.9-8.8,8.7-8.3,9.3c0.4,0.4,3-1.6,10.5-6.1c6.1-3.7,10.2-6.1,10.7-5.5c0.8,1-8.8,9.7-8.2,10.4c0.3,0.3,2.7-1.6,7.2-4.2
	c4.8-2.7,9.7-4.8,10.1-4.2c0.3,0.6-3.1,2.8-2.7,3.6c0.4,0.9,4.2-0.9,10-1.3c4.1-0.3,8,0.1,8.1,0.8s-5.3,1.4-5.3,2.3
	c0,0.7,4.1,0.8,9.1,1.7c7.5,1.4,13.5,4,13.4,4.6c-0.2,0.6-6.9-0.7-7.1,0.1c-0.2,0.7,5.3,2.3,5.1,3.2c-0.2,0.8-4.2,0.1-10.3,0.9
	c-4,0.5-8.4,1.6-8.3,2.3c0.1,1,9.6,0.5,9.7,1.7c0.1,1.1-7.8,1.6-16.9,6.3c-7.1,3.7-12.7,8.7-12.2,9.5s6.8-2.5,7.1-1.9
	c0.6,1.1-19.3,12.8-18.4,14.6c0.5,0.9,6.8-1.8,7.2-1c0.7,1.4-17.7,11.3-17.1,12.6c0.5,0.9,11.1-3.8,11.8-2.5
	c0.4,0.7-2.6,2.7-8.1,7.8c-2,1.8-7.8,7.2-7.4,7.8c0.1,0.2,0.9,0,10.5-5.9c6.9-4.2,9.1-5.8,9.6-5.3c1.1,1.1-7.2,10.1-6.4,10.8
	c0.7,0.7,8.5-6.2,9.2-6.8c4.9-4.4,7.6-7.4,8.2-6.9c0.8,0.6-2.4,5.8-1.8,6.2c1.2,0.9,15.2-18.1,16.8-17c0.8,0.5-1.9,5.7-1.3,6.1
	c0.5,0.3,2.4-2.6,5.8-6.4c3.4-3.8,8-8.1,8.9-7.4c0.8,0.6-1.8,4.4-0.8,5.4c0.9,0.8,3.9-1.4,6.8-2.8c1-0.5,2.3-1,3.7-1.5
	c3-1,5.1,2.9,2.7,4.8c-2.2,1.8-4.7,4-7.2,6.4c-6.1,6-12,13.1-11.2,14c0.7,0.8,6.7-4.2,7.4-3.4c0.6,0.7-4,5.1-9.1,12.2
	c-5.3,7.4-8.9,14.7-8.2,15.1c0.7,0.5,5.3-6,6.2-5.3c0.7,0.5-1.2,4.5-4.6,13.6c-3.7,9.5-3.9,11.2-3.5,11.4c0.8,0.4,4.4-5.5,5.1-5.1
	c1.3,0.7-8.1,19.7-6.7,20.5c1,0.6,7.7-10.2,8.7-9.6c0.7,0.4-2,5.2-4,13.3c-1.1,4.2-2.1,10.1-1.4,10.3c0.4,0.1,1.1-1.1,5.8-11.2
	c3.8-8,4.9-10.7,5.6-10.5c1.5,0.3-0.4,11.6,0.8,11.8c0.9,0.2,2.8-5.4,4-9.6c1.8-6.4,2-10.8,2.9-10.8c1.1,0,1.7,5.9,2.5,5.8
	c0.7-0.1,0.8-4.3,1.3-10.1c0.2-2.3,1.2-13.9,2.4-14c0.9,0,1.1,6.9,2.4,6.9c0.9,0,1.5-3.5,3-8.6c1.8-6.6,4.9-15.3,6.2-15
	c1.1,0.2,0.5,6.6,1.6,6.7c0.6,0.1,1.4-2.1,2.3-4.4c0.5-1.2,2.1-4.1,5.2-9.9c1-1.8,2.4-4.2,4.4-7.1c1.6-2.4,5.3-1.1,5.1,1.8
	c-0.1,0.8-0.1,1.6-0.1,2.5c-1,20.1,1.1,35.7,2.2,42.8c2.6,16.2,6.5,28.1,9.2,35.9c7.2,21.1,19.3,42.8,20.8,45.4
	c8.1,14.6,19.8,33.8,36.2,55.6l0,0c0.3,0.4,0.6,0.8,0.9,1.2c1.8,2,4.5,3.3,7.5,3.3c5.4,0,9.9-4.2,9.9-9.4c0-2-0.7-3.9-1.8-5.5
	c-0.4-0.5-0.8-1-1.3-1.4c-11.6-12.7-20.6-24.5-27.3-34.2c-12.8-18.3-20.2-33-22.4-37.5c-2.6-5.1-8.1-16.5-12.9-30.3
	c-5-14.7-11.2-38.3-11.2-69.6c0-3.1,4.3-3.9,5.5-1c0,0.1,0,0.1,0.1,0.2c2.8,7.4,4.2,12.6,5.4,12.5c1.4-0.2,1-7.6,2.2-7.7
	c0.9-0.1,1.7,4.2,3.9,11.4c1.4,4.5,3.8,12.7,5.1,12.5c1.2-0.2,0.5-7.6,1.5-7.7c0.3,0,1,0.6,3.7,9.9c2.1,7.6,2.9,11.3,3.8,11.3
	c1.2-0.1,1.4-7.1,2.4-7.1c0.7,0,1.2,3.7,2.8,10c1.2,4.8,2.4,9.8,3.4,9.7c1.4-0.1,1-11.6,2.5-11.8c0.6-0.1,1.6,1.9,3.4,10.1
	c1.7,7.6,2.7,9.2,3.3,9.1c1.1-0.1,2-6,1.4-11.6c-0.6-5.8-2.6-9.4-2.1-9.7c1-0.5,7.8,12,8.9,11.5c0.8-0.4-1.3-6.4-2.5-9.6
	c-2.6-6.9-5.3-11.2-4.8-11.6c0.6-0.4,4.5,5.1,5.1,4.7s-2.3-6.2-5.4-11.4c-3.6-6-6.6-9.6-6.1-10c0.6-0.5,5.9,5.2,6.7,4.6
	c0.8-0.7-3.3-7.3-6.6-12c-4.6-6.5-8.4-10.5-7.9-11.1c0.6-0.7,6.3,4.3,7,3.6c0.7-0.7-2.7-5.4-5.7-8.9c-5.1-5.9-9.1-8.5-8.7-9.2
	c0.5-0.8,6.6,1.9,10.9,4.2c5.5,2.9,8.4,5.2,9.3,4.4c1.2-1.1-2.2-5.9-1.3-6.6c0.9-0.6,4.9,2.9,8.3,6.7c5.1,5.8,7.2,10.4,8.2,10
	c1.2-0.5-0.6-7.3,0.2-7.5c0.7-0.2,2.3,3.8,5.4,10.4c4.6,9.8,5.7,11.2,6.2,11.1c1.1-0.3-0.4-7.6,0.6-7.8c0.7-0.2,2.1,3.7,5.4,11.3
	c3.6,8.6,4.4,9.7,4.7,9.6c1.2-0.3-1.7-13.6-0.4-14c0.8-0.2,2.2,4.1,5.9,10.7c2.6,4.6,6.6,10.6,7.3,10.2c1.4-0.7-8.2-20.8-6.1-22
	c1.6-0.9,8.9,10.3,10.1,9.6c0.9-0.5-1.1-6.1-4-11.1c-3.9-6.7-8.4-10.6-7.9-11.2s5.4,3.7,6.2,2.9c1-0.9-3.9-8.9-10.8-15.6
	c-3-2.9-5.9-5.1-5.7-5.5c0.5-0.7,8.2,4.6,8.8,3.8c0.5-0.7-4.7-6.5-11.8-11.3c-10.2-6.9-19.9-8.9-19.6-9.9s10.3,1.4,10.7,0.2
	c0.2-0.8-3.9-2.9-8-4.3c-6.9-2.5-13.9-3.2-23.8-2.8c-13.3,0.6-22.3,2.9-22.7,1.7c-0.3-1.2,8.5-4.1,8.1-5.7c-0.3-1.3-7.1-0.4-7.1-0.9
	c-0.1-0.5,5.3-1.9,12.6-2.8c8.2-1,12.8-0.6,13.1-2c0.3-1.6-6.2-3.7-5.8-4.7c0.3-1.1,7.3-0.3,14,1.4c5.8,1.5,9.5,3.3,10,2.5
	c0.6-1-4.7-4.8-4.3-5.5c0.4-0.6,4.3,1.4,10.5,4.3c6.8,3.1,12.2,5.6,12.7,4.9c0.5-0.9-6-5.5-5.5-6.1c0.3-0.4,3.1,1,10.6,5.1
	c8.6,4.7,12.3,6.9,12.7,6.4c0.6-0.8-9.9-8.8-9-10.2c0.4-0.6,4.3,0.9,12.1,4.1c10.7,4.3,13,5.3,13.3,4.9
	C334.6,175.7,329.1,171.6,324,168.5z"/>
<linearGradient id="SVGID_29_" gradientUnits="userSpaceOnUse" x1="234.304" y1="298.1625" x2="214.5016" y2="131.3508">
	<stop  offset="0" style="stop-color:#2BC492;stop-opacity:0"/>
	<stop  offset="0.1479" style="stop-color:#30C195;stop-opacity:0.1585"/>
	<stop  offset="0.3316" style="stop-color:#40B89F;stop-opacity:0.3552"/>
	<stop  offset="0.534" style="stop-color:#59A8B0;stop-opacity:0.5721"/>
	<stop  offset="0.7485" style="stop-color:#7C93C6;stop-opacity:0.8019"/>
	<stop  offset="0.9334" style="stop-color:#A07DDE"/>
</linearGradient>
<path class="st27" d="M324,168.5c-7.5-4.6-12.9-6.3-12.7-7c0.4-1.2,15.1,2.7,15.4,1.5c0.2-0.8-6.6-3.7-11.2-5.4
	c-7.4-2.8-12.7-3.9-12.6-4.5c0.1-0.8,9.1,0.7,9.3-0.3c0.2-1-7.8-4.4-17-5.9c-7.8-1.3-14-0.9-14.1-1.6c-0.1-0.8,8.9-1.5,8.9-2.6
	c0-1-6.9-2.1-14.1-2.1c-13.1,0-22.4,3.7-22.9,2.6c-0.4-1.1,8.1-4.7,7.7-5.6c-0.3-0.9-8.1,0.3-15.8,3.7c-4.6,1.9-10.3,6.2-21.7,14.7
	c-1.2,0.9-3.6,2.3-5.5,5.3c-0.2,0.4-0.9,1.4-2.3,4.7c-0.4,1-0.8,2-1.1,2.9c-0.7,1.8-3,2.4-4.5,1.1c-2.7-2.3-6.1-5.2-9.9-8.6
	c-7.7-6.8-12.2-11.3-13.1-10.6c-1.1,0.9,4.7,9.9,4.1,10.3c-0.4,0.2-2.3-3.1-6.1-6.1c-2.3-1.8-4.2-2.7-8.2-4.4
	c-10.6-4.5-15.9-6.7-16.1-6.1c-0.4,0.8,7.5,5.1,7.1,5.9c-0.3,0.7-5.3-2-12.5-3.4c-9.6-1.8-18.1-0.2-18.1,0.5c0,0.6,6.5,0.9,6.5,1.9
	s-6.6,0.9-14.4,4.4c-5.5,2.4-9.7,5.8-9.4,6.3c0.2,0.3,1.9-0.5,6-1.6c2.3-0.6,6.6-1.7,6.8-1.1c0.2,0.6-4.2,2.3-9.3,6.2
	c-5,3.9-8.8,8.7-8.3,9.3c0.4,0.4,3-1.6,10.5-6.1c6.1-3.7,10.2-6.1,10.7-5.5c0.8,1-8.8,9.7-8.2,10.4c0.3,0.3,2.7-1.6,7.2-4.2
	c4.8-2.7,9.7-4.8,10.1-4.2c0.3,0.6-3.1,2.8-2.7,3.6c0.4,0.9,4.2-0.9,10-1.3c4.1-0.3,8,0.1,8.1,0.8s-5.3,1.4-5.3,2.3
	c0,0.7,4.1,0.8,9.1,1.7c7.5,1.4,13.5,4,13.4,4.6c-0.2,0.6-6.9-0.7-7.1,0.1c-0.2,0.7,5.3,2.3,5.1,3.2c-0.2,0.8-4.2,0.1-10.3,0.9
	c-4,0.5-8.4,1.6-8.3,2.3c0.1,1,9.6,0.5,9.7,1.7c0.1,1.1-7.8,1.6-16.9,6.3c-7.1,3.7-12.7,8.7-12.2,9.5s6.8-2.5,7.1-1.9
	c0.6,1.1-19.3,12.8-18.4,14.6c0.5,0.9,6.8-1.8,7.2-1c0.7,1.4-17.7,11.3-17.1,12.6c0.5,0.9,11.1-3.8,11.8-2.5
	c0.4,0.7-2.6,2.7-8.1,7.8c-2,1.8-7.8,7.2-7.4,7.8c0.1,0.2,0.9,0,10.5-5.9c6.9-4.2,9.1-5.8,9.6-5.3c1.1,1.1-7.2,10.1-6.4,10.8
	c0.7,0.7,8.5-6.2,9.2-6.8c4.9-4.4,7.6-7.4,8.2-6.9c0.8,0.6-2.4,5.8-1.8,6.2c1.2,0.9,15.2-18.1,16.8-17c0.8,0.5-1.9,5.7-1.3,6.1
	c0.5,0.3,2.4-2.6,5.8-6.4c3.4-3.8,8-8.1,8.9-7.4c0.8,0.6-1.8,4.4-0.8,5.4c0.9,0.8,3.9-1.4,6.8-2.8c1-0.5,2.3-1,3.7-1.5
	c3-1,5.1,2.9,2.7,4.8c-2.2,1.8-4.7,4-7.2,6.4c-6.1,6-12,13.1-11.2,14c0.7,0.8,6.7-4.2,7.4-3.4c0.6,0.7-4,5.1-9.1,12.2
	c-5.3,7.4-8.9,14.7-8.2,15.1c0.7,0.5,5.3-6,6.2-5.3c0.7,0.5-1.2,4.5-4.6,13.6c-3.7,9.5-3.9,11.2-3.5,11.4c0.8,0.4,4.4-5.5,5.1-5.1
	c1.3,0.7-8.1,19.7-6.7,20.5c1,0.6,7.7-10.2,8.7-9.6c0.7,0.4-2,5.2-4,13.3c-1.1,4.2-2.1,10.1-1.4,10.3c0.4,0.1,1.1-1.1,5.8-11.2
	c3.8-8,4.9-10.7,5.6-10.5c1.5,0.3-0.4,11.6,0.8,11.8c0.9,0.2,2.8-5.4,4-9.6c1.8-6.4,2-10.8,2.9-10.8c1.1,0,1.7,5.9,2.5,5.8
	c0.7-0.1,0.8-4.3,1.3-10.1c0.2-2.3,1.2-13.9,2.4-14c0.9,0,1.1,6.9,2.4,6.9c0.9,0,1.5-3.5,3-8.6c1.8-6.6,4.9-15.3,6.2-15
	c1.1,0.2,0.5,6.6,1.6,6.7c0.6,0.1,1.4-2.1,2.3-4.4c0.5-1.2,2.1-4.1,5.2-9.9c1-1.8,2.4-4.2,4.4-7.1c1.6-2.4,5.3-1.1,5.1,1.8
	c-0.1,0.8-0.1,1.6-0.1,2.5c-1,20.1,1.1,35.7,2.2,42.8c2.6,16.2,6.5,28.1,9.2,35.9c7.2,21.1,19.3,42.8,20.8,45.4
	c8.1,14.6,19.8,33.8,36.2,55.6l0,0c0.3,0.4,0.6,0.8,0.9,1.2c1.8,2,4.5,3.3,7.5,3.3c5.4,0,9.9-4.2,9.9-9.4c0-2-0.7-3.9-1.8-5.5
	c-0.4-0.5-0.8-1-1.3-1.4c-11.6-12.7-20.6-24.5-27.3-34.2c-12.8-18.3-20.2-33-22.4-37.5c-2.6-5.1-8.1-16.5-12.9-30.3
	c-5-14.7-11.2-38.3-11.2-69.6c0-3.1,4.3-3.9,5.5-1c0,0.1,0,0.1,0.1,0.2c2.8,7.4,4.2,12.6,5.4,12.5c1.4-0.2,1-7.6,2.2-7.7
	c0.9-0.1,1.7,4.2,3.9,11.4c1.4,4.5,3.8,12.7,5.1,12.5c1.2-0.2,0.5-7.6,1.5-7.7c0.3,0,1,0.6,3.7,9.9c2.1,7.6,2.9,11.3,3.8,11.3
	c1.2-0.1,1.4-7.1,2.4-7.1c0.7,0,1.2,3.7,2.8,10c1.2,4.8,2.4,9.8,3.4,9.7c1.4-0.1,1-11.6,2.5-11.8c0.6-0.1,1.6,1.9,3.4,10.1
	c1.7,7.6,2.7,9.2,3.3,9.1c1.1-0.1,2-6,1.4-11.6c-0.6-5.8-2.6-9.4-2.1-9.7c1-0.5,7.8,12,8.9,11.5c0.8-0.4-1.3-6.4-2.5-9.6
	c-2.6-6.9-5.3-11.2-4.8-11.6c0.6-0.4,4.5,5.1,5.1,4.7s-2.3-6.2-5.4-11.4c-3.6-6-6.6-9.6-6.1-10c0.6-0.5,5.9,5.2,6.7,4.6
	c0.8-0.7-3.3-7.3-6.6-12c-4.6-6.5-8.4-10.5-7.9-11.1c0.6-0.7,6.3,4.3,7,3.6c0.7-0.7-2.7-5.4-5.7-8.9c-5.1-5.9-9.1-8.5-8.7-9.2
	c0.5-0.8,6.6,1.9,10.9,4.2c5.5,2.9,8.4,5.2,9.3,4.4c1.2-1.1-2.2-5.9-1.3-6.6c0.9-0.6,4.9,2.9,8.3,6.7c5.1,5.8,7.2,10.4,8.2,10
	c1.2-0.5-0.6-7.3,0.2-7.5c0.7-0.2,2.3,3.8,5.4,10.4c4.6,9.8,5.7,11.2,6.2,11.1c1.1-0.3-0.4-7.6,0.6-7.8c0.7-0.2,2.1,3.7,5.4,11.3
	c3.6,8.6,4.4,9.7,4.7,9.6c1.2-0.3-1.7-13.6-0.4-14c0.8-0.2,2.2,4.1,5.9,10.7c2.6,4.6,6.6,10.6,7.3,10.2c1.4-0.7-8.2-20.8-6.1-22
	c1.6-0.9,8.9,10.3,10.1,9.6c0.9-0.5-1.1-6.1-4-11.1c-3.9-6.7-8.4-10.6-7.9-11.2s5.4,3.7,6.2,2.9c1-0.9-3.9-8.9-10.8-15.6
	c-3-2.9-5.9-5.1-5.7-5.5c0.5-0.7,8.2,4.6,8.8,3.8c0.5-0.7-4.7-6.5-11.8-11.3c-10.2-6.9-19.9-8.9-19.6-9.9s10.3,1.4,10.7,0.2
	c0.2-0.8-3.9-2.9-8-4.3c-6.9-2.5-13.9-3.2-23.8-2.8c-13.3,0.6-22.3,2.9-22.7,1.7c-0.3-1.2,8.5-4.1,8.1-5.7c-0.3-1.3-7.1-0.4-7.1-0.9
	c-0.1-0.5,5.3-1.9,12.6-2.8c8.2-1,12.8-0.6,13.1-2c0.3-1.6-6.2-3.7-5.8-4.7c0.3-1.1,7.3-0.3,14,1.4c5.8,1.5,9.5,3.3,10,2.5
	c0.6-1-4.7-4.8-4.3-5.5c0.4-0.6,4.3,1.4,10.5,4.3c6.8,3.1,12.2,5.6,12.7,4.9c0.5-0.9-6-5.5-5.5-6.1c0.3-0.4,3.1,1,10.6,5.1
	c8.6,4.7,12.3,6.9,12.7,6.4c0.6-0.8-9.9-8.8-9-10.2c0.4-0.6,4.3,0.9,12.1,4.1c10.7,4.3,13,5.3,13.3,4.9
	C334.6,175.7,329.1,171.6,324,168.5z"/>
</svg>
