<?xml version="1.0" encoding="utf-8"?>
<!-- Generator: Adobe Illustrator 25.2.0, SVG Export Plug-In . SVG Version: 6.00 Build 0)  -->
<svg version="1.1" id="Layer_1" xmlns="http://www.w3.org/2000/svg" xmlns:xlink="http://www.w3.org/1999/xlink" x="0px" y="0px"
	 viewBox="0 0 499 259" style="enable-background:new 0 0 499 259;" xml:space="preserve">
<style type="text/css">
	.st0{fill:#101313;}
	.st1{fill:#232525;}
	.st2{fill:#F85858;}
	.st3{fill:#2AC68E;}
	.st4{fill:#F076AB;}
	.st5{fill:#008CE3;}
	.st6{fill:#A07DDE;}
	.st7{fill:#3DDDD8;}
	.st8{fill:#D7D7D7;}
</style>
<path class="st0" d="M487,259H12c-6.6,0-12-5.4-12-12V12C0,5.4,5.4,0,12,0h475c6.6,0,12,5.4,12,12v235C499,253.6,493.6,259,487,259z
	"/>
<g>
	<path class="st1" d="M114,119H25c-2.8,0-5-2.2-5-5V25c0-2.8,2.2-5,5-5h89c2.8,0,5,2.2,5,5v89C119,116.8,116.8,119,114,119z"/>
	<path class="st2" d="M234,119h-89c-2.8,0-5-2.2-5-5V25c0-2.8,2.2-5,5-5h89c2.8,0,5,2.2,5,5v89C239,116.8,236.8,119,234,119z"/>
	<path class="st3" d="M354,119h-89c-2.8,0-5-2.2-5-5V25c0-2.8,2.2-5,5-5h89c2.8,0,5,2.2,5,5v89C359,116.8,356.8,119,354,119z"/>
	<path class="st4" d="M234,239h-89c-2.8,0-5-2.2-5-5v-89c0-2.8,2.2-5,5-5h89c2.8,0,5,2.2,5,5v89C239,236.8,236.8,239,234,239z"/>
	<path class="st5" d="M474,119h-89c-2.8,0-5-2.2-5-5V25c0-2.8,2.2-5,5-5h89c2.8,0,5,2.2,5,5v89C479,116.8,476.8,119,474,119z"/>
	<path class="st6" d="M474,239h-89c-2.8,0-5-2.2-5-5v-89c0-2.8,2.2-5,5-5h89c2.8,0,5,2.2,5,5v89C479,236.8,476.8,239,474,239z"/>
	<path class="st7" d="M354,239h-89c-2.8,0-5-2.2-5-5v-89c0-2.8,2.2-5,5-5h89c2.8,0,5,2.2,5,5v89C359,236.8,356.8,239,354,239z"/>
	<path class="st8" d="M114,239H25c-2.8,0-5-2.2-5-5v-89c0-2.8,2.2-5,5-5h89c2.8,0,5,2.2,5,5v89C119,236.8,116.8,239,114,239z"/>
</g>
</svg>
